<svg xmlns="http://www.w3.org/2000/svg" width="1457.223" height="442.262" viewBox="0 0 1457.223 442.262"><path d="M733.07 434.287v-3.36a12.7 12.7 0 0 0 4.043 1.748c1.422.336 2.626.503 3.617.503 1.602 0 2.758-.258 3.462-.775s1.058-1.163 1.058-1.936c0-.514-.164-.951-.494-1.314s-1.149-.812-2.456-1.347l-1.092-.445-2.201-.869c-2.366-.921-3.855-1.774-4.47-2.559-.625-.772-.938-1.718-.938-2.832 0-1.569.606-2.859 1.819-3.871 1.213-1.013 3.18-1.519 5.901-1.519 2.038 0 3.968.295 5.789.887v2.884c-2.096-.751-4.065-1.128-5.911-1.128-1.344 0-2.396.237-3.152.709-.758.472-1.136 1.061-1.136 1.766 0 .683.329 1.229.987 1.638.65.409 1.708.881 3.176 1.415l2.152.786c1.971.715 3.352 1.495 4.145 2.336.794.841 1.189 1.895 1.189 3.155 0 1.649-.633 3.005-1.9 4.068-1.27 1.063-3.297 1.595-6.082 1.595-2.433-.001-4.935-.511-7.506-1.535zM761.652 435.821c-2.727 0-4.908-.952-6.545-2.856-1.636-1.905-2.454-4.308-2.454-7.206 0-2.901.818-5.3 2.454-7.2 1.637-1.898 3.818-2.848 6.545-2.848 2.715 0 4.891.949 6.526 2.848 1.636 1.9 2.455 4.299 2.455 7.2 0 2.898-.819 5.301-2.455 7.206-1.635 1.904-3.811 2.856-6.526 2.856zm0-2.643c1.691 0 3.036-.66 4.036-1.979.999-1.318 1.498-3.133 1.498-5.44 0-2.298-.499-4.106-1.498-5.426-1-1.319-2.345-1.979-4.036-1.979-1.703 0-3.055.66-4.054 1.979-1 1.319-1.499 3.128-1.499 5.426 0 2.308.499 4.122 1.499 5.44 1 1.319 2.351 1.979 4.054 1.979zM790.812 434.747c-2.125.717-4.15 1.074-6.072 1.074-1.91 0-3.607-.44-5.091-1.321a9.328 9.328 0 0 1-3.472-3.583c-.83-1.507-1.246-3.22-1.246-5.143 0-2.888.941-5.287 2.823-7.198 1.882-1.91 4.155-2.865 6.815-2.865 1.967 0 4.049.369 6.242 1.109v3.053c-2.216-1.012-4.201-1.52-5.953-1.52-1.159 0-2.251.288-3.274.862s-1.813 1.47-2.372 2.687a8.929 8.929 0 0 0-.835 3.752c0 1.718.537 3.355 1.612 4.913 1.074 1.559 2.761 2.338 5.059 2.338.692 0 1.375-.049 2.047-.146.67-.097 1.91-.451 3.717-1.065v3.053zM801.083 435.293v-16.409h-5.288v-2.646h8.461v16.412h5.306v2.643h-8.479zm-.512-25.937c0-.714.243-1.246.731-1.597.486-.352.945-.527 1.375-.527.441 0 .906.176 1.393.527.488.351.731.883.731 1.597 0 .703-.243 1.229-.731 1.579-.486.352-.951.527-1.393.527-.43 0-.889-.176-1.375-.527-.488-.349-.731-.875-.731-1.579zM832.556 434.025c-2.536 1.198-4.935 1.796-7.198 1.796-1.718 0-3.253-.426-4.605-1.277-1.354-.853-2.438-2.07-3.25-3.656a11 11 0 0 1-1.22-5.088c0-1.738.388-3.408 1.16-5.011.772-1.602 1.854-2.849 3.241-3.74s2.934-1.338 4.64-1.338c2.263 0 4.079.807 5.45 2.418 1.37 1.612 2.055 4.1 2.055 7.459v.681h-13.135c0 1.323.276 2.532.828 3.627.552 1.093 1.275 1.915 2.175 2.462.899.548 1.923.82 3.07.82 2.047 0 4.311-.684 6.789-2.051v2.898zm-12.673-10.127h9.5v-.46c0-1.553-.381-2.788-1.144-3.707-.761-.918-1.778-1.378-3.053-1.378-1.284 0-2.397.469-3.335 1.403-.938.937-1.595 2.318-1.968 4.142zm1.756-10.576l5.031-5.561h3.702l-5.817 5.561h-2.916zM853.607 434.524c-1.491.626-2.571.999-3.243 1.119-.671.118-1.319.178-1.943.178-1.331 0-2.548-.255-3.651-.767-1.103-.512-1.936-1.269-2.498-2.269-.564-1.001-.846-2.548-.846-4.64v-7.678h-4.758v-2.643h4.758v-7.677h3.174v7.677h8.478v2.643H844.6v7.626c0 1.535.182 2.618.547 3.25.363.63.85 1.095 1.457 1.39.609.295 1.328.443 2.158.443 1.534 0 3.149-.483 4.846-1.45v2.798zM874.486 434.025c-2.537 1.198-4.936 1.796-7.199 1.796-1.717 0-3.253-.426-4.605-1.277-1.354-.853-2.438-2.07-3.25-3.656a11 11 0 0 1-1.219-5.088c0-1.738.387-3.408 1.16-5.011.771-1.602 1.854-2.849 3.24-3.74s2.934-1.338 4.64-1.338c2.264 0 4.079.807 5.45 2.418 1.37 1.612 2.056 4.1 2.056 7.459v.681h-13.135c0 1.323.276 2.532.827 3.627.553 1.093 1.276 1.915 2.175 2.462.899.548 1.923.82 3.071.82 2.047 0 4.311-.684 6.789-2.051v2.898zm-12.674-10.127h9.5v-.46c0-1.553-.381-2.788-1.143-3.707-.762-.918-1.779-1.378-3.053-1.378-1.285 0-2.397.469-3.335 1.403-.937.937-1.595 2.318-1.969 4.142zm1.756-10.576l5.031-5.561h3.703l-5.818 5.561h-2.916zM916.603 434.747c-2.126.717-4.15 1.074-6.073 1.074-1.91 0-3.606-.44-5.09-1.321a9.318 9.318 0 0 1-3.471-3.583c-.831-1.507-1.246-3.22-1.246-5.143 0-2.888.939-5.287 2.822-7.198 1.883-1.91 4.154-2.865 6.816-2.865 1.967 0 4.047.369 6.241 1.109v3.053c-2.216-1.012-4.2-1.52-5.952-1.52-1.16 0-2.252.288-3.275.862s-1.814 1.47-2.371 2.687a8.93 8.93 0 0 0-.836 3.752c0 1.718.537 3.355 1.612 4.913 1.074 1.559 2.761 2.338 5.058 2.338.693 0 1.375-.049 2.048-.146.671-.097 1.91-.451 3.717-1.065v3.053zM926.873 435.293v-16.409h-5.288v-2.646h8.461v16.412h5.306v2.643h-8.479zm-.512-25.937c0-.714.243-1.246.731-1.597.486-.352.944-.527 1.375-.527.442 0 .906.176 1.393.527.488.351.731.883.731 1.597 0 .703-.243 1.229-.731 1.579-.486.352-.95.527-1.393.527-.431 0-.889-.176-1.375-.527-.488-.349-.731-.875-.731-1.579zM948.706 435.293l-8.28-19.055h3.48l6.541 15.099 6.649-15.099h3.185l-8.34 19.055h-3.235zM968.803 435.293v-16.409h-5.287v-2.646h8.461v16.412h5.305v2.643h-8.479zm-.512-25.937c0-.714.244-1.246.731-1.597.487-.352.944-.527 1.375-.527.442 0 .907.176 1.394.527.487.351.73.883.73 1.597 0 .703-.243 1.229-.73 1.579-.486.352-.951.527-1.394.527-.431 0-.888-.176-1.375-.527-.487-.349-.731-.875-.731-1.579zM989.545 435.293v-24.887h-5.695v-2.645h8.87v24.889h5.952v2.643h-9.127zM1021.24 434.025c-2.535 1.198-4.934 1.796-7.197 1.796-1.719 0-3.254-.426-4.606-1.277-1.353-.853-2.437-2.07-3.249-3.656a10.988 10.988 0 0 1-1.22-5.088c0-1.738.387-3.408 1.159-5.011.773-1.602 1.854-2.849 3.242-3.74 1.387-.892 2.934-1.338 4.639-1.338 2.264 0 4.08.807 5.45 2.418 1.37 1.612 2.056 4.1 2.056 7.459v.681h-13.135c0 1.323.276 2.532.828 3.627.552 1.093 1.275 1.915 2.174 2.462.899.548 1.923.82 3.07.82 2.047 0 4.311-.684 6.789-2.051v2.898zm-12.673-10.127h9.501v-.46c0-1.553-.381-2.788-1.145-3.707-.76-.918-1.777-1.378-3.053-1.378-1.283 0-2.396.469-3.334 1.403-.937.937-1.595 2.318-1.969 4.142zM1060.066 431.01c-.969 1.593-2.131 2.793-3.493 3.602-1.36.807-2.609 1.21-3.749 1.21-1.594 0-3.025-.687-4.295-2.063-1.27-1.376-1.904-3.463-1.904-6.261 0-2.206.421-4.176 1.264-5.909.842-1.734 1.97-3.104 3.382-4.112 1.412-1.006 3.159-1.51 5.243-1.51.604 0 1.515.063 2.732.188.183.022.455.052.82.084v-8.477h3.173v27.531h-3.173v-4.283zm0-3.774v-8.183c-1.127-.295-2.176-.443-3.145-.443-1.959 0-3.592.757-4.895 2.271-1.305 1.514-1.957 3.576-1.957 6.182 0 1.892.355 3.317 1.068 4.279.711.962 1.523 1.443 2.434 1.443.992 0 2.086-.501 3.281-1.504 1.199-1 2.268-2.349 3.214-4.045zM1072.877 419.668v-2.133c.819-.215 1.442-.521 1.868-.917.427-.397.769-.903 1.023-1.521.257-.617.384-1.368.384-2.252-1.057 0-1.836-.298-2.338-.896-.499-.597-.75-1.231-.75-1.901 0-.797.279-1.465.837-2.005.558-.539 1.206-.811 1.944-.811.955 0 1.779.412 2.473 1.235.694.823 1.041 1.95 1.041 3.382a7.876 7.876 0 0 1-.818 3.544 8.622 8.622 0 0 1-2.227 2.827c-.937.784-2.084 1.265-3.437 1.448zM1101.778 431.03c-.968 1.586-2.13 2.781-3.489 3.585s-2.607 1.206-3.744 1.206c-1.594 0-3.023-.687-4.292-2.063-1.27-1.376-1.903-3.463-1.903-6.261 0-2.206.422-4.176 1.264-5.909.843-1.734 1.971-3.104 3.383-4.112 1.41-1.006 3.158-1.51 5.242-1.51.604 0 1.512.063 2.726.188.183.022.454.052.817.084h3.184v13.455c0 2.3.244 4.165.732 5.6h-3.308c-.257-1.041-.46-2.462-.612-4.263zm.013-3.794v-8.183c-1.127-.295-2.176-.443-3.145-.443-1.959 0-3.59.757-4.895 2.271-1.304 1.514-1.956 3.576-1.956 6.182 0 1.892.356 3.317 1.067 4.279.713.962 1.523 1.443 2.435 1.443.992 0 2.085-.501 3.28-1.504 1.198-1 2.269-2.349 3.214-4.045zM1116.426 435.293l-8.279-19.055h3.479l6.542 15.099 6.648-15.099h3.186l-8.341 19.055h-3.235zM1139.022 435.821c-2.726 0-4.908-.952-6.544-2.856-1.637-1.905-2.455-4.308-2.455-7.206 0-2.901.818-5.3 2.455-7.2 1.636-1.898 3.818-2.848 6.544-2.848 2.715 0 4.891.949 6.526 2.848 1.637 1.9 2.455 4.299 2.455 7.2 0 2.898-.818 5.301-2.455 7.206-1.635 1.904-3.811 2.856-6.526 2.856zm0-2.643c1.69 0 3.036-.66 4.036-1.979s1.498-3.133 1.498-5.44c0-2.298-.498-4.106-1.498-5.426s-2.346-1.979-4.036-1.979c-1.702 0-3.054.66-4.054 1.979s-1.498 3.128-1.498 5.426c0 2.308.498 4.122 1.498 5.44s2.352 1.979 4.054 1.979zM1168.184 434.747c-2.127.717-4.15 1.074-6.073 1.074-1.911 0-3.607-.44-5.091-1.321a9.326 9.326 0 0 1-3.471-3.583c-.831-1.507-1.246-3.22-1.246-5.143 0-2.888.94-5.287 2.822-7.198 1.883-1.91 4.155-2.865 6.816-2.865 1.967 0 4.048.369 6.242 1.109v3.053c-2.217-1.012-4.201-1.52-5.953-1.52-1.16 0-2.252.288-3.275.862s-1.814 1.47-2.371 2.687a8.93 8.93 0 0 0-.836 3.752c0 1.718.537 3.355 1.613 4.913 1.073 1.559 2.76 2.338 5.058 2.338.692 0 1.375-.049 2.047-.146.671-.097 1.911-.451 3.718-1.065v3.053zM1185.639 431.03c-.967 1.586-2.131 2.781-3.488 3.585-1.361.804-2.608 1.206-3.746 1.206-1.594 0-3.023-.687-4.291-2.063-1.27-1.376-1.903-3.463-1.903-6.261 0-2.206.421-4.176 1.264-5.909.843-1.734 1.97-3.104 3.382-4.112 1.411-1.006 3.158-1.51 5.242-1.51.604 0 1.514.063 2.727.188.182.022.453.052.817.084h3.183v13.455c0 2.3.245 4.165.732 5.6h-3.307c-.258-1.041-.462-2.462-.612-4.263zm.013-3.794v-8.183c-1.128-.295-2.177-.443-3.145-.443-1.96 0-3.592.757-4.896 2.271-1.304 1.514-1.956 3.576-1.956 6.182 0 1.892.355 3.317 1.067 4.279s1.523 1.443 2.435 1.443c.992 0 2.085-.501 3.281-1.504 1.198-1 2.267-2.349 3.214-4.045zM1210.012 434.524c-1.49.626-2.57.999-3.242 1.119-.67.118-1.318.178-1.943.178-1.332 0-2.548-.255-3.652-.767-1.102-.512-1.936-1.269-2.497-2.269-.563-1.001-.846-2.548-.846-4.64v-7.678h-4.759v-2.643h4.759v-7.677h3.175v7.677h8.477v2.643h-8.477v7.626c0 1.535.181 2.618.545 3.25.363.63.851 1.095 1.459 1.39.607.295 1.327.443 2.158.443 1.533 0 3.148-.483 4.844-1.45v2.798zM1215.266 434.287v-3.36a12.695 12.695 0 0 0 4.044 1.748c1.421.336 2.626.503 3.616.503 1.602 0 2.758-.258 3.462-.775s1.058-1.163 1.058-1.936c0-.514-.164-.951-.494-1.314s-1.149-.812-2.456-1.347l-1.092-.445-2.201-.869c-2.366-.921-3.854-1.774-4.47-2.559-.625-.772-.938-1.718-.938-2.832 0-1.569.606-2.859 1.819-3.871 1.213-1.013 3.18-1.519 5.901-1.519 2.038 0 3.968.295 5.789.887v2.884c-2.096-.751-4.065-1.128-5.911-1.128-1.344 0-2.395.237-3.152.709s-1.136 1.061-1.136 1.766c0 .683.329 1.229.988 1.638.649.409 1.707.881 3.176 1.415l2.151.786c1.971.715 3.352 1.495 4.145 2.336.794.841 1.189 1.895 1.189 3.155 0 1.649-.633 3.005-1.9 4.068-1.269 1.063-3.297 1.595-6.082 1.595-2.434-.001-4.936-.511-7.506-1.535z"/><g><path d="M530.268 98.828c1.925 8.161 4.354 14.556 7.285 19.175 2.94 4.625 8.924 12.05 17.951 22.274 9.037 10.13 14.705 17.356 17.005 21.683 2.249 4.326 3.364 13.522 3.364 27.581 0 6.395-.588 11.212-1.762 14.455-1.184 3.247-2.982 4.869-5.4 4.869-2.414 0-4.096-1.277-5.045-3.833-.947-2.557-1.425-8.308-1.425-17.261v-29.058h-33.745v15.638c0 17.896 1.064 31.712 3.189 41.448 2.13 9.732 6.633 17.749 13.507 24.041 6.876 6.294 15.175 9.441 24.901 9.441 8.858 0 16.628-2.732 23.306-8.187 6.669-5.46 11.173-12.218 13.507-20.282 2.329-8.062 3.489-20.601 3.489-37.615 0-23.4-2.101-40.365-6.296-50.886-4.2-10.522-14.388-23.99-30.562-40.396-2.364-2.387-4.245-4.595-5.832-6.69h-39.569c.485 5.068 1.19 9.616 2.132 13.603zM665.346 159.007h-12.51c.75-16.809 2.379-41.423 4.877-73.78h-31.82l-12.347 159.039h37.563l2.189-42.925h12.993l1.955 42.925h37.127L691.538 85.227h-30.446c1.418 28.358 2.836 52.98 4.254 73.78zM659.807 58.706c.309 6.537.609 12.835.911 19.028h30.173l-6.295-72.277h-52.518l-5.604 72.277h31.82c.477-6.096.976-12.417 1.513-19.028zM758.325 94.774c-.981 2.997-3.251 4.496-6.823 4.496-.857 0-2.07.05-3.619.146v-14.19h-36.338v159.039h42.027c14.62 0 24.285-1.428 28.999-4.277 4.723-2.854 8.161-8.169 10.321-15.942 2.153-7.772 3.233-19.727 3.233-35.863v-22.139c0-15.542-1.501-27.081-4.489-34.61-2.99-7.529-8.688-12.913-17.084-16.163 7.535-2.944 12.581-7.169 15.145-12.674 1.756-3.779 2.896-9.604 3.443-17.37h-33.676c-.243 4.74-.622 7.953-1.139 9.547zm1.462 86.361c0 9.638-.705 15.687-2.105 18.143-1.412 2.461-4.682 3.834-9.799 4.131V136.59c5.405.294 8.746 1.525 10.01 3.688 1.264 2.163 1.895 8.358 1.895 18.583v22.274zM747.883 46.314c3.738.103 6.256.545 7.55 1.329 1.294.786 2.344 2.682 3.151 5.678.807 3.001 1.203 8.238 1.203 15.712 0 3.199-.029 6.071-.074 8.701h33.775c.029-1.4.051-2.824.051-4.323 0-20.637-1.816-35.599-5.443-44.886-3.619-9.285-8.381-15.451-14.279-18.5-5.896-3.048-14.571-4.568-26.022-4.568h-36.249v72.277h36.338v-31.42zM854.078 96.541c-1.637 1.916-4.503 2.876-8.588 2.876v-14.19h-36.335v159.039h36.335V136.59c5.002 0 8.096 1.525 9.276 4.573 1.184 3.048 1.771 10.962 1.771 23.746v79.356h33.746v-62.983c0-19.274-.303-31.049-.905-35.327-.603-4.274-2.145-8.972-4.618-14.088-2.478-5.111-7.311-9.192-14.502-12.24 7.941-1.278 13.268-5.113 15.97-11.506 1.925-4.536 3.145-12.212 3.702-22.895h-33.561c-.314 6.114-1.08 9.897-2.291 11.315zM845.49 46.314c4.203 0 7.09 1.183 8.674 3.541 1.582 2.361 2.373 7.33 2.373 14.899v12.979h33.672c.051-2.26.074-4.606.074-7.082 0-20.353-1.91-35.175-5.738-44.474-3.826-9.288-8.777-15.065-14.844-17.328-6.076-2.262-17.682-3.394-34.822-3.394h-25.724v72.277h36.335V46.314zM947.903 159.007h-12.507c.747-16.809 2.379-41.423 4.877-73.78h-31.82l-12.347 159.039h37.563l2.189-42.925h12.993l1.952 42.925h37.13L974.096 85.227h-30.443c1.417 28.358 2.832 52.98 4.25 73.78zM942.365 58.706c.309 6.537.61 12.835.91 19.028h30.176l-6.295-72.277h-52.518l-5.604 72.277h31.816c.48-6.096.98-12.417 1.515-19.028zM1137.371 5.457h-47.272l-5.406 72.277h52.678zM1076.592 56.228c-1.478-19.49-2.916-36.414-4.313-50.771h-47.015v72.277h53.156l-1.828-21.506zM1081.754 116.972l-2.693-31.745h-53.797v159.039h31.759l.045-157.535 13.329 157.535h22.529l12.48-159.039h-21.279zM1105.611 244.266h31.76V85.227h-31.795zM1199.857 85.553c0 8.851-.646 14.676-1.94 17.481-1.294 2.798-3.613 4.201-6.948 4.201-.75 0-1.637-.048-2.672-.146V85.227h-36.338v159.039h36.338v-96.173h9.754c7.938 0 14.367-1.866 19.289-5.605 4.918-3.734 8.297-9.093 10.134-16.077 1.845-6.979 2.762-18.092 2.762-33.336v-7.848h-30.378v.326zM1188.297 46.314c4.713 0 7.822 1.231 9.32 3.688 1.498 2.461 2.24 7.771 2.24 15.933v11.8h30.378v-5.457c0-14.944-.469-25.985-1.418-33.117-.952-7.128-2.759-13.198-5.44-18.216-2.674-5.013-6.67-8.851-11.994-11.506-5.325-2.655-12.938-3.981-22.831-3.981h-36.593v72.277h36.338V46.314zM1287.375 176.562c0 14.062-.347 22.964-1.035 26.699-.691 3.734-2.278 5.604-4.746 5.604-2.418 0-3.958-1.622-4.619-4.869-.662-3.243-.994-11.8-.994-25.663V85.227h-36.246c-.053 5.827-.089 12.178-.089 19.207v40.857c0 24.587.345 41.794 1.035 51.628.691 9.836 2.851 18.929 6.47 27.287 3.632 8.359 8.42 14.628 14.377 18.804 5.957 4.183 12.67 6.272 20.146 6.272 7.888 0 14.794-2.214 20.713-6.639 5.93-4.427 10.638-10.77 14.117-19.028 3.475-8.259 5.548-17.378 6.215-27.361.662-9.978.992-26.968.992-50.963v-40.857a1869 1869 0 0 0-.09-19.207h-36.246v91.335zM1275.98 66.818c0-12.288.502-19.692 1.516-22.196 1.006-2.513 2.451-3.765 4.355-3.765 2.24 0 3.723 1.55 4.443 4.648.719 3.093 1.08 10.204 1.08 21.312v10.916h36.151c-.169-10.812-.448-19.172-.852-24.931-.69-9.831-2.851-18.924-6.479-27.286-3.619-8.355-8.41-14.624-14.367-18.808-5.957-4.18-12.67-6.27-20.154-6.27-7.88 0-14.786 2.215-20.713 6.641-5.919 4.425-10.63 10.768-14.109 19.026-3.482 8.261-5.554 17.383-6.215 27.365-.374 5.741-.646 13.883-.807 24.262h36.15V66.818zM1414.672 5.457h-33.377c-3.465 27.259-6.191 51.325-8.197 72.277h29.008l12.566-72.277zM1362.354 5.457h-33.383l12.118 72.277h28.61c-1.463-17.478-3.908-41.54-7.345-72.277zM1371.176 99.563c-.163-3.886-.457-8.679-.884-14.337h-27.945l12.169 72.602v86.438h33.662v-86.438l12.629-72.602h-28.396c-.449 4.947-.876 9.772-1.235 14.337zM1420.888 5.457h36.335v72.277h-36.335zM1420.888 85.227h36.335v159.039h-36.335zM1105.406 85.227h.17v-2.183zM573.936 77.734h33.439v-9.438c0-18.98-1.08-32.43-3.23-40.348-2.16-7.91-6.559-14.477-13.207-19.688-6.646-5.213-14.691-7.82-24.121-7.82-8.631 0-15.996 2.388-22.093 7.154-6.105 4.774-10.52 11.386-13.252 19.839-2.732 8.458-4.097 21.834-4.097 40.123 0 3.589.101 6.948.255 10.178h35.653c-.042-.133.029-.284-.016-.416-1.261-4.036-1.893-10.037-1.893-18.01 0-6.199.564-10.819 1.688-13.875 1.116-3.048 2.771-4.576 4.958-4.576 2.015 0 3.453 1.135 4.319 3.394.86 2.263 1.293 7.521 1.293 15.784v17.699"/></g><g><path d="M530.362 352.353c0-3.019 1.724-4.528 5.177-4.528h20.188c3.45 0 5.177 1.47 5.177 4.401 0 3.105-1.727 4.66-5.177 4.66h-20.188c-3.453 0-5.177-1.51-5.177-4.533zM628.201 367.943c0 5.064.516 8.065 1.551 9.009.777.775 1.789 1.244 3.045 1.418 1.245.172 4.075.257 8.475.257h11.389c5.951 0 9.918-.786 11.902-2.361 1.988-1.576 2.979-4.745 2.979-9.509 0-1.278-.045-2.765-.127-4.469-.179-3.321-.262-5.317-.262-6.002 0-3.742 1.51-5.615 4.53-5.615 3.622 0 5.438 1.73 5.438 5.178 0 1.037-.05 1.856-.134 2.458l-.904 6.604a44.19 44.19 0 0 0-.389 5.953c0 1.209.107 2.996.323 5.369.214 2.372.323 4.165.323 5.37 0 3.882-2.198 5.823-6.601 5.823-.86 0-2.845-.15-5.95-.451-2.071-.151-5.264-.301-9.58-.455H623.801c-2.07 0-5.523.176-10.354.518-.693 0-1.877.066-3.559.194-1.686.129-3 .194-3.949.194-3.622 0-5.435-1.554-5.435-4.659 0-2.759 1.338-4.14 4.011-4.14.691 0 1.727.129 3.105.386 1.38.261 2.416.39 3.109.39 4.399 0 6.598-3.236 6.598-9.707v-51.894c0-6.382-2.198-9.579-6.598-9.579-1.213 0-2.115.09-2.717.262-1.386.258-2.549.39-3.498.39-1.119 0-2.07-.412-2.846-1.23-.779-.819-1.165-1.832-1.165-3.041 0-3.019 1.854-4.531 5.565-4.531.516 0 1.162.047 1.943.132l6.855.775c3.797.434 6.601.646 8.413.646 2.239 0 5.002-.212 8.282-.646l5.955-.775c.688-.085 1.246-.132 1.682-.132 3.881 0 5.823 1.513 5.823 4.531 0 1.209-.389 2.222-1.169 3.041-.773.818-1.727 1.23-2.845 1.23-.863 0-2.029-.132-3.491-.39-.609-.172-1.514-.262-2.721-.262-4.399 0-6.598 3.178-6.598 9.527v50.193zM751.395 372.284l-4.654-12.681c-.519-1.381-1.059-2.244-1.619-2.59-.564-.345-1.706-.518-3.427-.518h-23.038c-1.727 0-2.914.305-3.561.907s-1.486 2.243-2.521 4.917l-3.753 9.964c-.347.952-.519 1.858-.519 2.717 0 2.763 1.682 4.144 5.046 4.144.863 0 2.095-.085 3.69-.26 1.596-.174 2.779-.258 3.561-.258 3.535 0 5.307 1.51 5.307 4.528 0 2.847-1.943 4.271-5.826 4.271-.688 0-1.641-.088-2.846-.26l-6.47-.806c-1.214-.154-3.195-.227-5.954-.227-3.023 0-5.135.069-6.343.214l-5.435.649c-2.418.286-4.189.429-5.307.429-3.365 0-5.047-1.424-5.047-4.271 0-3.019 1.638-4.528 4.916-4.528.691 0 1.21.172 1.555.518h1.682c2.328 0 4.1-.906 5.307-2.725.52-.694 1.377-2.729 2.59-6.104l24.068-65.309c1.38-3.637 4.098-5.454 8.155-5.454 3.967 0 6.599 1.814 7.892 5.436l23.166 64.189c1.465 4.059 2.803 6.731 4.011 8.024 1.208 1.297 2.935 1.942 5.18 1.942.688 0 1.204-.059 1.552-.172l3.622-.346c3.278 0 4.919 1.421 4.919 4.268 0 3.022-1.641 4.531-4.919 4.531-.949 0-2.201-.095-3.753-.286-5.438-.672-9.49-1.006-12.163-1.006-3.192 0-8.372.346-15.532 1.032-1.811.172-3.193.26-4.139.26-3.453 0-5.18-1.464-5.18-4.399 0-2.93 1.898-4.399 5.698-4.399.774 0 1.917.084 3.43.258 1.504.175 2.651.26 3.427.26 2.848 0 4.271-1.165 4.271-3.496 0-.34-.348-1.464-1.039-3.363zm-9.315-26.398l-11.646-35.72-11.905 35.72c-.175.518-.259.818-.259.903 0 .778.647 1.164 1.941 1.164h20.576c1.035 0 1.555-.341 1.555-1.032 0-.172-.09-.518-.262-1.035zM798.244 320.52l10.608 54.743 13.332-67.296c1.121-5.865 4.011-8.799 8.671-8.799 4.919 0 7.85 2.588 8.799 7.763l12.943 69.235 11-53.703c.775-3.798 1.164-6.688 1.164-8.672 0-3.536-1.811-5.307-5.436-5.307-.779 0-1.898.089-3.363.258-1.469.175-2.59.26-3.365.26-3.714 0-5.568-1.509-5.568-4.531 0-2.932 1.816-4.399 5.436-4.399 1.383 0 2.803.087 4.271.261 7.072.863 11.732 1.292 13.979 1.292 1.721 0 4.29-.257 7.699-.774 3.405-.518 5.975-.778 7.701-.778 3.188 0 4.787 1.557 4.787 4.668 0 2.842-1.554 4.263-4.66 4.263-.52 0-1.293-.105-2.328-.322-1.035-.218-1.811-.323-2.329-.323-1.812 0-3.13.689-3.948 2.067-.822 1.38-1.793 4.487-2.91 9.321l-14.492 61.728c-1.125 4.745-3.797 7.117-8.025 7.117-4.488 0-7.295-2.93-8.416-8.799l-13.068-68.46-14.363 70.271c-.953 4.66-3.409 6.987-7.379 6.987-4.055 0-6.645-2.372-7.764-7.117l-15.398-64.446c-.781-3.279-1.748-5.502-2.914-6.664-1.162-1.165-2.999-1.749-5.5-1.749h-.904l-2.848.389c-2.763 0-4.143-1.443-4.143-4.333 0-3.062 1.511-4.598 4.531-4.598 1.207 0 2.59.132 4.141.388 4.658.779 9.19 1.165 13.59 1.165 2.07 0 6.812-.429 14.234-1.292a28.152 28.152 0 0 1 3.752-.261c3.104 0 4.658 1.425 4.658 4.27 0 3.108-1.898 4.661-5.693 4.661-.777 0-1.963-.085-3.557-.26-1.6-.169-2.785-.258-3.561-.258-3.022 0-4.532 1.421-4.532 4.271 0 1.035.134 2.244.392 3.621l.776 4.142zM964.799 389.754c-11.479 0-20.559-4.138-27.243-12.424-6.689-8.281-10.03-19.493-10.03-33.645 0-14.322 3.364-25.56 10.096-33.714 6.729-8.153 16.002-12.229 27.824-12.229 11.299 0 20.294 3.971 26.98 11.906 6.684 7.94 10.031 18.68 10.031 32.224 0 14.668-3.386 26.318-10.158 34.94-6.776 8.632-15.944 12.942-27.5 12.942zm.258-82.693c-8.283 0-14.715 3.194-19.283 9.577-4.574 6.386-6.859 15.358-6.859 26.916 0 11.734 2.285 20.816 6.859 27.244 4.568 6.426 10.955 9.64 19.152 9.64 8.024 0 14.389-3.342 19.087-10.03 4.702-6.684 7.055-15.766 7.055-27.239 0-11.561-2.243-20.467-6.731-26.725-4.486-6.256-10.915-9.383-19.28-9.383zM1026.396 349.25v-31.448c0-6.382-2.184-9.579-6.547-9.579-1.113 0-1.967.122-2.566.365-1.371.363-2.482.543-3.338.543-1.117 0-2.059-.418-2.83-1.267-.771-.841-1.15-1.884-1.15-3.13 0-3.106 1.81-4.663 5.435-4.663.431 0 1.077.047 1.938.132l8.933.903c3.363.346 7.117.518 11.258.518 2.243 0 7.072-.128 14.495-.386l14.88-.518c1.988-.088 4.316-.217 6.99-.389 1.207-.174 2.5-.261 3.88-.261 4.575 0 6.862 2.03 6.862 6.084 0 1.55-.217 3.927-.646 7.118-.434 3.19-.647 5.608-.647 7.246 0 1.381.086 3.107.259 5.179a69.14 69.14 0 0 1 .26 5.692c0 3.541-1.554 5.306-4.66 5.306-3.191 0-4.791-2.019-4.791-6.055 0-1.201.068-3.045.195-5.538.129-2.491.196-4.335.196-5.539 0-4.551-1.294-7.426-3.884-8.63-2.59-1.201-8.715-1.804-18.377-1.804-8.197 0-12.857.734-13.977 2.2-.863 1.124-1.293 5.09-1.293 11.906v9.577c0 2.417.323 3.904.971 4.464.646.561 2.438.841 5.371.841h4.267c5.61 0 8.417-2.067 8.417-6.211 0-.947-.113-2.244-.324-3.882-.217-1.639-.323-2.891-.323-3.754 0-3.279 1.552-4.917 4.655-4.917 2.937 0 4.402 1.898 4.402 5.692 0 .518-.102 1.554-.303 3.106l-.905 6.989c-.403 3.107-.604 5.437-.604 6.989 0 3.536.45 8.021 1.358 13.457.302 1.813.454 3.54.454 5.178 0 3.364-1.552 5.046-4.658 5.046-2.934 0-4.399-1.811-4.399-5.436 0-.859.062-2.155.192-3.882.131-1.727.193-3.019.193-3.882 0-2.673-.732-4.399-2.201-5.179-.946-.603-2.934-.903-5.954-.903h-4.008c-3.022 0-4.874.341-5.565 1.025-.691.687-1.035 2.57-1.035 5.648v15.28c0 4.021.451 6.74 1.358 8.154.908 1.41 2.608 2.115 5.112 2.115h5.693c3.97 0 5.954 1.468 5.954 4.399 0 1.209-.451 2.244-1.359 3.107-.904.858-2.005 1.292-3.299 1.292-1.379 0-3.411-.217-6.084-.646-3.797-.603-8.111-.906-12.94-.906-3.106 0-6.429.261-9.965.778l-4.402.646a3.82 3.82 0 0 0-.901.129h-.781c-3.797 0-5.689-1.553-5.689-4.656 0-2.762 1.335-4.143 4.008-4.143.348 0 1.465.087 3.364.257.952.261 1.856.39 2.72.39 2.332 0 3.946-.714 4.854-2.135.905-1.425 1.4-3.948 1.486-7.572v-20.44zM1106.504 349.25v-31.448c0-6.382-2.186-9.579-6.547-9.579-1.113 0-1.971.122-2.569.365-1.368.363-2.479.543-3.337.543-1.115 0-2.057-.418-2.828-1.267-.771-.841-1.153-1.884-1.153-3.13 0-3.106 1.81-4.663 5.435-4.663.43 0 1.077.047 1.94.132l8.933.903c3.363.346 7.117.518 11.255.518 2.243 0 7.072-.128 14.495-.386l14.883-.518c1.984-.088 4.314-.217 6.986-.389a27.322 27.322 0 0 1 3.884-.261c4.571 0 6.862 2.03 6.862 6.084 0 1.55-.221 3.927-.647 7.118-.433 3.19-.646 5.608-.646 7.246 0 1.381.083 3.107.255 5.179.176 2.067.262 3.966.262 5.692 0 3.541-1.553 5.306-4.661 5.306-3.188 0-4.788-2.019-4.788-6.055 0-1.201.065-3.045.195-5.538.128-2.491.193-4.335.193-5.539 0-4.551-1.293-7.426-3.881-8.63-2.59-1.201-8.715-1.804-18.377-1.804-8.197 0-12.857.734-13.979 2.2-.863 1.124-1.294 5.09-1.294 11.906v9.577c0 2.417.323 3.904.97 4.464.646.561 2.438.841 5.373.841h4.269c5.606 0 8.413-2.067 8.413-6.211 0-.947-.109-2.244-.323-3.882-.216-1.639-.323-2.891-.323-3.754 0-3.279 1.555-4.917 4.658-4.917 2.934 0 4.398 1.898 4.398 5.692 0 .518-.098 1.554-.299 3.106l-.905 6.989c-.403 3.107-.604 5.437-.604 6.989 0 3.536.45 8.021 1.357 13.457a31.66 31.66 0 0 1 .451 5.178c0 3.364-1.549 5.046-4.657 5.046-2.935 0-4.399-1.811-4.399-5.436 0-.859.062-2.155.195-3.882.128-1.727.19-3.019.19-3.882 0-2.673-.729-4.399-2.198-5.179-.949-.603-2.934-.903-5.954-.903h-4.011c-3.023 0-4.874.341-5.562 1.025-.691.687-1.038 2.57-1.038 5.648v15.28c0 4.021.454 6.74 1.358 8.154.908 1.41 2.607 2.115 5.115 2.115h5.693c3.97 0 5.95 1.468 5.95 4.399 0 1.209-.45 2.244-1.357 3.107-.902.858-2.006 1.292-3.297 1.292-1.383 0-3.411-.217-6.087-.646-3.798-.603-8.108-.906-12.938-.906-3.106 0-6.432.261-9.968.778l-4.399.646c-.259 0-.562.044-.905.129h-.777c-3.797 0-5.692-1.553-5.692-4.656 0-2.762 1.338-4.143 4.011-4.143.344 0 1.465.087 3.364.257.952.261 1.854.39 2.718.39 2.331 0 3.947-.714 4.855-2.135.902-1.425 1.397-3.948 1.486-7.572v-20.44zM1186.867 317.802c0-6.382-2.199-9.579-6.598-9.579-1.211 0-2.115.09-2.719.262-1.382.258-2.545.39-3.494.39-1.124 0-2.07-.412-2.845-1.23-.78-.819-1.166-1.832-1.166-3.041 0-3.019 1.896-4.531 5.692-4.531.52 0 1.122.047 1.812.132l6.859.903c2.59.346 5.263.518 8.025.518 2.672 0 5.604-.212 8.799-.646l5.826-.775c.686-.085 1.29-.132 1.81-.132 3.794 0 5.692 1.513 5.692 4.531 0 1.209-.385 2.222-1.166 3.041-.773.818-1.723 1.23-2.845 1.23-.863 0-2.026-.132-3.491-.39-.608-.172-1.514-.262-2.718-.262-4.405 0-6.604 3.197-6.604 9.579v51.894c0 6.471 2.198 9.707 6.604 9.707.686 0 1.593-.085 2.718-.258 1.637-.26 2.801-.389 3.491-.389 2.673 0 4.011 1.381 4.011 4.143 0 3.104-1.898 4.656-5.692 4.656h-.908a3.848 3.848 0 0 0-.901-.129l-6.734-1.035a46.81 46.81 0 0 0-7.117-.519c-3.625 0-6.858.217-9.707.647l-5.951.906c-.174 0-.475.044-.904.129h-1.035c-3.715 0-5.565-1.553-5.565-4.656 0-2.762 1.335-4.143 4.011-4.143.43 0 1.596.087 3.494.257.95.261 1.855.39 2.719.39 4.398 0 6.598-3.236 6.598-9.707v-51.893zM1260.759 297.742c9.579 0 17.388 3.67 23.425 11v-1.458-1.458c-.172-.529-.258-.838-.258-.926-.173-1.943-.262-2.828-.262-2.652 0-3.004 1.341-4.506 4.02-4.506 2.842 0 4.266 1.811 4.266 5.435 0 .691-.086 2.762-.261 6.215-.517 4.312-.774 7.291-.774 8.929 0 2.328.148 4.703.442 7.116l.593 4.917v1.294c0 3.886-1.551 5.825-4.66 5.825-3.363 0-5.004-1.837-4.916-5.517v-4.624c.172-6.158-1.765-11.164-5.809-15.014-4.043-3.852-9.338-5.777-15.874-5.777-8.521 0-15.192 3.281-20.01 9.836-4.817 6.559-7.227 15.619-7.227 27.177 0 11.822 2.479 21.029 7.44 27.633 4.963 6.599 11.885 9.897 20.771 9.897 4.83 0 9.168-1.164 13.006-3.493 3.836-2.328 6.535-5.392 8.09-9.188 1.035-2.501 1.555-5.865 1.555-10.096 0-3.966 1.638-5.954 4.916-5.954 3.536 0 5.305 1.988 5.305 5.954 0 9.232-3.192 16.784-9.576 22.648-6.385 5.868-14.623 8.799-24.719 8.799-11.646 0-20.943-4.094-27.886-12.292-6.948-8.196-10.419-19.107-10.419-32.743 0-14.06 3.557-25.408 10.674-34.035 7.12-8.627 16.504-12.942 28.148-12.942zM1318.865 317.802c0-6.382-2.197-9.579-6.598-9.579-1.213 0-2.115.09-2.717.262-1.386.258-2.551.39-3.498.39-1.121 0-2.07-.412-2.845-1.23-.78-.819-1.166-1.832-1.166-3.041 0-3.019 1.804-4.531 5.417-4.531.086 0 .732.047 1.932.132 12.898.863 18.915 1.293 18.058 1.293h1.29l31.082-.907c.602 0 2.836-.13 6.704-.386a61.508 61.508 0 0 1 3.741-.132c4.473 0 6.704 1.985 6.704 5.952 0 .694-.122 2.894-.368 6.601a113.613 113.613 0 0 0-.278 7.639c0 3.019.074 5.131.216 6.339.289 2.505.431 4.359.431 5.563 0 3.279-1.53 4.917-4.589 4.917-3.068 0-4.596-2.284-4.596-6.855v-6.731c0-7.247-1.514-11.518-4.533-12.812-2.242-.946-8.019-1.424-17.34-1.424-6.126 0-9.751.132-10.873.389-3.707.951-5.562 3.541-5.562 7.764V330.357c0 3.453.763 5.437 2.299 5.954.593.173 1.614.257 3.062.257h5.233c5.36 0 8.04-1.851 8.04-5.563 0-1.036-.107-2.372-.324-4.011-.217-1.638-.323-3.106-.323-4.399 0-3.452 1.534-5.179 4.595-5.179 3.064 0 4.596 1.858 4.596 5.568 0 .689-.279 3.364-.836 8.021-.479 3.971-.719 7.462-.719 10.485 0 1.727.172 4.785.52 9.185.083.694.3 2.199.646 4.533.258 1.898.389 3.407.389 4.528 0 3.105-1.555 4.66-4.657 4.66-3.022 0-4.533-1.815-4.533-5.437 0-.95.106-2.331.323-4.143.217-1.81.324-3.19.324-4.143 0-3.705-2.457-5.564-7.375-5.564h-5.824c-2.501 0-4.031.434-4.596 1.297-.561.863-.839 2.718-.839 5.563v8.025c0 1.381.044 3.231.128 5.563.088 2.847.133 4.745.133 5.693.083 3.451.774 5.611 2.068 6.472.949.604 3.188.906 6.73.906h17.598c5.092 0 8.583-.757 10.481-2.267 1.899-1.509 2.851-4.333 2.851-8.476 0-1.294-.064-3.213-.195-5.759-.127-2.545-.193-4.466-.193-5.758 0-3.884 1.531-5.825 4.596-5.825 3.234 0 4.851 1.986 4.851 5.953 0 1.554-.062 3.926-.196 7.118-.127 3.195-.189 5.563-.189 7.117 0 1.211.062 3 .189 5.372.134 2.373.196 4.161.196 5.369 0 4.055-1.985 6.082-5.954 6.082-.946 0-2.457-.085-4.527-.257-1.035-.089-2.934-.132-5.692-.132.603 0-2.765-.085-10.096-.258-7.337-.173-13.679-.257-19.024-.257-8.107 0-16.047.257-23.813.774a6.06 6.06 0 0 0-1.163.129h-.777c-3.621 0-5.435-1.553-5.435-4.656 0-2.762 1.338-4.143 4.011-4.143.431 0 1.6.087 3.498.257.946.261 1.852.39 2.717.39 4.4 0 6.598-3.236 6.598-9.707v-51.892zM1423.693 352.353c0-3.019 1.721-4.528 5.174-4.528h20.188c3.453 0 5.18 1.47 5.18 4.401 0 3.105-1.727 4.66-5.18 4.66h-20.188c-3.453 0-5.174-1.51-5.174-4.533z"/></g><g><path d="M338.546 20.913l.01.038-3.441-1.356c-.103-.041-21.457-7.148-32.996-7.148-14.704 0-24.645 6.311-29.545 18.757-7.175 16.95 3.226 63.419 13.282 108.358 12.146 54.268 23.617 105.525 10.946 122.818-10.706 14.028-39.219 15.539-50.984 15.539h-.001a92.27 92.27 0 0 1-3.092-.045 89.76 89.76 0 0 1-3.091.045c-11.612 0-39.53-1.48-50.52-14.971-7.277-2.314-13.877-5.819-17.919-11.115-12.7-17.331-1.229-68.589 10.917-122.857 10.057-44.938 20.457-91.408 13.306-108.299-1.489-3.783-3.313-7.023-5.44-9.76-5.544-7.13-13.224-10.731-22.974-10.76-4.023-.012-8.577 1.025-11.353 1.779a46.969 46.969 0 0 0-2.58.766C64.051 32.958 0 117.248 0 216.501c0 124.684 101.077 225.761 225.761 225.761 124.686 0 225.762-101.077 225.762-225.761-.001-83.599-45.449-156.567-112.977-195.588z"/><path d="M242.62 272.873l.103-.004.105.004c.044.002 1.14.045 2.988.045 8.598.001 37.396-.976 46.981-13.532 11.3-15.422-.984-70.308-11.821-118.732-10.7-47.812-20.808-92.973-13.031-111.341 5.623-14.285 17.448-21.867 34.173-21.867 3.379 0 8.415.832 13.503 1.911a217.996 217.996 0 0 0-5.568-2.34l.003.12-3.441-1.355c-.103-.042-10.439-3.921-21.979-3.921-14.704 0-24.645 6.311-29.545 18.758-7.175 16.95 3.226 63.419 13.282 108.357 12.146 54.268 23.617 105.526 10.946 122.818-10.706 14.028-39.219 15.539-50.984 15.539h-.001a92.27 92.27 0 0 1-3.092-.045c-.351.012-1.438.045-3.091.045-5.068 0-13.247-.283-21.768-1.721 12.537 6.675 32.365 7.307 39.25 7.307a82.448 82.448 0 0 0 2.987-.046z"/><path fill="#FFF" d="M302.118 7.446c-16.725 0-28.55 7.582-34.173 21.867-7.776 18.368 2.331 63.529 13.031 111.341 10.837 48.424 23.121 103.31 11.821 118.732-9.585 12.557-38.384 13.533-46.981 13.532a81.09 81.09 0 0 1-2.988-.045l-.105-.004-.103.004c-.047.002-1.14.045-2.986.045-6.885 0-26.713-.632-39.25-7.307-3.771-.637-7.605-1.499-11.27-2.664 10.989 13.491 38.907 14.971 50.52 14.971 1.652 0 2.74-.032 3.091-.045a92.27 92.27 0 0 0 3.092.045h.001c11.766 0 40.278-1.511 50.984-15.539 12.671-17.292 1.199-68.55-10.946-122.818-10.057-44.939-20.457-91.408-13.282-108.358 4.9-12.446 14.841-18.757 29.545-18.757 11.539 0 32.894 7.107 32.996 7.148l3.441 1.356-.01-.038a225.274 225.274 0 0 0-22.925-11.556c-5.088-1.078-10.124-1.91-13.503-1.91z"/><path d="M167.004.156c9.75.028 17.43 3.63 22.974 10.76 10.188 4.96 19.824 12.476 22.923 20.346 7.151 16.892-3.249 63.36-13.306 108.299-12.146 54.268-23.617 105.525-10.917 122.857.139.181.292.351.437.528 3.664 1.165 7.499 2.027 11.27 2.664-3.121-1.662-5.798-3.692-7.702-6.187-11.329-15.461.955-70.347 11.792-118.771 10.7-47.812 20.808-92.973 13.056-111.282C209.84 9.842 179.881 0 169.051 0a48.158 48.158 0 0 0-13.399 1.935c2.775-.753 7.328-1.79 11.352-1.779z"/></g></svg>