<svg xmlns="http://www.w3.org/2000/svg" width="1296.248" height="442.262" viewBox="0 0 1296.248 442.262"><path d="M488.594 137.251c1.678 7.111 3.795 12.683 6.349 16.707 2.562 4.03 7.775 10.5 15.641 19.408 7.874 8.825 12.813 15.122 14.816 18.892 1.959 3.769 2.931 11.781 2.931 24.03 0 5.572-.512 9.77-1.535 12.596-1.031 2.829-2.598 4.242-4.704 4.242-2.104 0-3.569-1.113-4.397-3.34-.824-2.229-1.24-7.238-1.24-15.04V189.43h-29.402v13.625c0 15.593.929 27.63 2.779 36.114 1.855 8.479 5.779 15.465 11.769 20.947 5.991 5.483 13.221 8.226 21.696 8.226 7.719 0 14.488-2.38 20.307-7.133 5.811-4.757 9.734-10.645 11.769-17.672 2.028-7.023 3.04-17.949 3.04-32.774 0-20.389-1.83-35.17-5.485-44.337-3.66-9.168-12.536-20.902-26.629-35.196a57.881 57.881 0 0 1-5.081-5.83h-34.477c.419 4.415 1.034 8.378 1.853 11.851zM606.288 189.686h-10.9c.654-14.646 2.073-36.091 4.249-64.285h-27.725l-10.758 138.57h32.729l1.907-37.4h11.321l1.704 37.4h32.348L629.109 125.4h-26.528c1.235 24.71 2.472 46.162 3.707 64.286zM601.462 102.294c.269 5.695.53 11.183.794 16.578h26.29l-5.485-62.974h-45.759l-4.883 62.974h27.725c.417-5.31.85-10.818 1.318-16.578zM687.301 133.719c-.855 2.612-2.833 3.917-5.945 3.917-.747 0-1.804.044-3.153.128V125.4h-31.661v138.57h36.619c12.737 0 21.158-1.243 25.266-3.727 4.115-2.486 7.111-7.117 8.993-13.891 1.876-6.772 2.817-17.188 2.817-31.248v-19.289c0-13.542-1.309-23.596-3.911-30.156-2.605-6.56-7.571-11.251-14.886-14.083 6.565-2.565 10.962-6.247 13.195-11.042 1.53-3.293 2.523-8.368 3.001-15.135h-29.343c-.212 4.132-.543 6.931-.992 8.32zm1.274 75.246c0 8.397-.615 13.667-1.835 15.808-1.23 2.144-4.079 3.341-8.538 3.599v-58.218c4.71.255 7.62 1.328 8.722 3.212 1.101 1.884 1.651 7.282 1.651 16.191v19.408zM678.202 91.497c3.257.089 5.451.474 6.578 1.158 1.127.685 2.042 2.337 2.745 4.947.703 2.614 1.05 7.178 1.05 13.689 0 2.788-.026 5.29-.065 7.581h29.429c.025-1.22.044-2.46.044-3.766 0-17.981-1.582-31.018-4.743-39.109-3.153-8.09-7.302-13.463-12.44-16.119s-12.697-3.98-22.674-3.98h-31.584v62.974h31.661V91.497zM770.73 135.259c-1.427 1.67-3.924 2.506-7.483 2.506V125.4h-31.658v138.57h31.658v-93.816c4.358 0 7.054 1.328 8.083 3.984 1.031 2.655 1.543 9.55 1.543 20.689v69.143h29.402v-54.877c0-16.793-.264-27.052-.789-30.779-.524-3.725-1.868-7.818-4.024-12.275-2.158-4.454-6.368-8.009-12.634-10.666 6.919-1.114 11.559-4.455 13.914-10.025 1.677-3.952 2.739-10.64 3.226-19.948h-29.242c-.275 5.328-.941 8.623-1.996 9.859zM763.247 91.497c3.663 0 6.178 1.03 7.558 3.084 1.378 2.058 2.068 6.388 2.068 12.983v11.308h29.338c.043-1.968.064-4.012.064-6.169 0-17.734-1.665-30.648-4.999-38.75-3.335-8.093-7.648-13.127-12.935-15.098-5.294-1.972-15.405-2.958-30.34-2.958h-22.413v62.974h31.658V91.497zM852.479 189.686h-10.897c.651-14.646 2.073-36.091 4.25-64.285h-27.725l-10.759 138.57h32.729l1.907-37.4h11.321l1.701 37.4h32.352L875.301 125.4h-26.525c1.235 24.71 2.468 46.162 3.703 64.286zM847.654 102.294c.269 5.695.532 11.183.793 16.578h26.293l-5.485-62.974h-45.759l-4.883 62.974h27.723c.416-5.31.852-10.818 1.318-16.578zM1017.562 55.898h-41.188l-4.709 62.974h45.897zM964.605 100.134c-1.287-16.982-2.541-31.728-3.758-44.236h-40.965v62.974h46.314l-1.591-18.738zM969.104 153.06l-2.348-27.66h-46.873v138.571h27.674l.038-137.259 11.614 137.259h19.629L989.712 125.4h-18.541zM989.89 263.971h27.672V125.4h-27.703zM1072.007 125.685c0 7.712-.563 12.787-1.69 15.232-1.127 2.437-3.148 3.66-6.054 3.66-.654 0-1.427-.041-2.329-.128V125.4h-31.661v138.57h31.661v-83.794h8.499c6.917 0 12.518-1.626 16.806-4.884 4.286-3.254 7.23-7.922 8.83-14.008 1.607-6.081 2.406-15.763 2.406-29.045V125.4h-26.468v.285zM1061.934 91.497c4.107 0 6.816 1.073 8.121 3.212 1.306 2.145 1.952 6.771 1.952 13.882v10.281h26.468v-4.754c0-13.021-.408-22.64-1.235-28.854-.83-6.211-2.404-11.5-4.74-15.872-2.329-4.367-5.811-7.711-10.45-10.025-4.641-2.313-11.272-3.469-19.893-3.469h-31.884v62.974h31.661V91.497zM1148.261 204.981c0 12.252-.303 20.009-.902 23.264-.603 3.253-1.985 4.882-4.136 4.882-2.106 0-3.448-1.413-4.024-4.242-.576-2.826-.866-10.281-.866-22.361V125.4h-31.581c-.046 5.078-.077 10.611-.077 16.735v35.6c0 21.423.3 36.415.902 44.984.602 8.568 2.483 16.492 5.637 23.773 3.164 7.285 7.336 12.746 12.526 16.385 5.19 3.645 11.04 5.465 17.554 5.465 6.873 0 12.89-1.929 18.047-5.785 5.167-3.855 9.269-9.383 12.301-16.578 3.027-7.195 4.834-15.142 5.415-23.839.576-8.694.863-23.497.863-44.404v-35.6c0-6.124-.025-11.661-.077-16.735h-31.581v79.58zM1138.332 109.362c0-10.707.438-17.159 1.321-19.34.876-2.189 2.135-3.28 3.794-3.28 1.952 0 3.244 1.351 3.872 4.05.626 2.694.941 8.891.941 18.57v9.51h31.498c-.147-9.42-.391-16.704-.742-21.721-.602-8.566-2.483-16.488-5.645-23.774-3.153-7.28-7.328-12.742-12.519-16.387-5.19-3.642-11.039-5.463-17.561-5.463-6.865 0-12.883 1.929-18.048 5.787-5.156 3.855-9.261 9.381-12.293 16.577-3.034 7.198-4.839 15.146-5.415 23.844-.326 5.002-.563 12.096-.703 21.138h31.498v-9.511zM1259.174 55.898h-29.081c-3.02 23.75-5.395 44.719-7.142 62.974h25.273l10.95-62.974zM1213.589 55.898h-29.087l10.559 62.974h24.928c-1.274-15.228-3.404-36.193-6.4-62.974zM1221.276 137.893c-.143-3.386-.398-7.562-.771-12.492h-24.349l10.603 63.258v75.312h29.33v-75.312l11.003-63.258h-24.741c-.39 4.309-.762 8.513-1.075 12.492zM1264.59 55.898h31.658v62.974h-31.658zM1264.59 125.4h31.658v138.57h-31.658zM989.712 125.4h.147v-1.9zM526.643 118.872h29.136v-8.223c0-16.538-.94-28.256-2.814-35.154-1.882-6.893-5.716-12.615-11.508-17.155-5.79-4.542-12.8-6.813-21.017-6.813-7.52 0-13.938 2.081-19.25 6.234-5.318 4.16-9.165 9.92-11.546 17.285-2.38 7.369-3.569 19.024-3.569 34.96 0 3.125.088 6.053.223 8.866h31.063c-.036-.115.026-.247-.013-.361-1.099-3.517-1.649-8.746-1.649-15.692 0-5.401.491-9.427 1.471-12.089.972-2.656 2.415-3.987 4.319-3.987 1.755 0 3.009.989 3.764 2.957.75 1.971 1.127 6.552 1.127 13.752v15.42"/><g><path d="M488.677 358.147c0-2.63 1.502-3.946 4.511-3.946h17.59c3.006 0 4.51 1.281 4.51 3.835 0 2.706-1.504 4.061-4.51 4.061h-17.59c-3.009 0-4.511-1.316-4.511-3.95zM573.924 371.732c0 4.412.449 7.025 1.352 7.849.678.675 1.559 1.083 2.652 1.235 1.086.149 3.551.223 7.385.223h9.923c5.185 0 8.641-.685 10.37-2.057 1.732-1.373 2.596-4.135 2.596-8.285 0-1.113-.039-2.408-.111-3.894-.155-2.894-.228-4.634-.228-5.229 0-3.26 1.315-4.893 3.946-4.893 3.156 0 4.738 1.508 4.738 4.512 0 .903-.044 1.617-.116 2.142l-.788 5.753a38.474 38.474 0 0 0-.339 5.188c0 1.054.093 2.61.282 4.678.186 2.066.281 3.629.281 4.68 0 3.381-1.915 5.073-5.751 5.073-.75 0-2.479-.13-5.186-.393-1.804-.132-4.585-.263-8.347-.397h-26.494c-1.804 0-4.812.154-9.021.451-.604 0-1.636.059-3.102.17-1.468.111-2.613.169-3.44.169-3.156 0-4.735-1.353-4.735-4.06 0-2.404 1.166-3.607 3.495-3.607.602 0 1.504.113 2.706.336 1.202.229 2.104.34 2.709.34 3.833 0 5.748-2.819 5.748-8.457v-45.215c0-5.561-1.915-8.346-5.748-8.346-1.058 0-1.843.078-2.368.227-1.207.226-2.221.34-3.047.34-.975 0-1.805-.359-2.479-1.072-.68-.713-1.016-1.596-1.016-2.648 0-2.63 1.615-3.948 4.849-3.948.45 0 1.014.04 1.693.114l5.974.676c3.309.378 5.751.562 7.331.562 1.951 0 4.357-.185 7.216-.562l5.188-.676c.6-.074 1.085-.114 1.465-.114 3.381 0 5.074 1.318 5.074 3.948 0 1.053-.339 1.936-1.019 2.648-.675.713-1.504 1.072-2.479 1.072-.753 0-1.769-.114-3.042-.34-.53-.148-1.318-.227-2.371-.227-3.833 0-5.748 2.768-5.748 8.301v43.733zM681.263 375.514l-4.056-11.049c-.452-1.203-.923-1.955-1.411-2.257-.491-.3-1.486-.451-2.985-.451h-20.074c-1.504 0-2.538.267-3.102.791s-1.295 1.954-2.197 4.284l-3.27 8.682c-.303.829-.452 1.619-.452 2.367 0 2.406 1.466 3.609 4.396 3.609.753 0 1.825-.074 3.216-.227 1.391-.15 2.422-.225 3.102-.225 3.081 0 4.624 1.316 4.624 3.945 0 2.48-1.692 3.722-5.076 3.722-.6 0-1.43-.076-2.479-.226l-5.637-.702c-1.058-.135-2.784-.197-5.188-.197-2.635 0-4.475.06-5.526.185l-4.735.566c-2.107.249-3.65.374-4.625.374-2.931 0-4.396-1.241-4.396-3.722 0-2.629 1.427-3.945 4.283-3.945.603 0 1.055.15 1.354.451h1.466c2.029 0 3.572-.789 4.624-2.373.452-.605 1.199-2.379 2.257-5.318l20.971-56.903c1.201-3.169 3.569-4.753 7.105-4.753 3.455 0 5.748 1.581 6.875 4.736l20.185 55.928c1.277 3.536 2.442 5.865 3.495 6.992 1.052 1.13 2.557 1.691 4.513 1.691.6 0 1.05-.051 1.353-.15l3.155-.301c2.856 0 4.286 1.239 4.286 3.719 0 2.634-1.43 3.948-4.286 3.948-.827 0-1.918-.083-3.27-.25-4.738-.585-8.269-.875-10.598-.875-2.781 0-7.294.3-13.534.899-1.576.149-2.781.226-3.605.226-3.009 0-4.514-1.275-4.514-3.834 0-2.552 1.654-3.833 4.966-3.833.675 0 1.67.074 2.988.225 1.311.152 2.311.227 2.985.227 2.481 0 3.722-1.014 3.722-3.046-.001-.297-.303-1.276-.905-2.93zm-8.117-23.001l-10.148-31.122-10.373 31.122c-.152.451-.225.714-.225.786 0 .68.563 1.016 1.69 1.016h17.929c.902 0 1.354-.298 1.354-.9.001-.151-.077-.451-.227-.902zM722.082 330.411l9.243 47.696 11.616-58.635c.977-5.109 3.494-7.666 7.555-7.666 4.286 0 6.84 2.256 7.667 6.765l11.277 60.324 9.584-46.792c.675-3.308 1.014-5.826 1.014-7.555 0-3.082-1.577-4.625-4.735-4.625-.68 0-1.654.078-2.932.226-1.279.152-2.256.226-2.931.226-3.236 0-4.852-1.313-4.852-3.947 0-2.555 1.582-3.833 4.735-3.833 1.204 0 2.442.075 3.722.228 6.162.752 10.224 1.125 12.18 1.125 1.499 0 3.737-.224 6.708-.675 2.967-.45 5.205-.678 6.71-.678 2.778 0 4.172 1.356 4.172 4.066 0 2.476-1.354 3.714-4.061 3.714-.452 0-1.127-.092-2.029-.279-.902-.191-1.577-.282-2.029-.282-1.579 0-2.727.601-3.44 1.802-.716 1.201-1.561 3.909-2.535 8.121l-12.627 53.783c-.979 4.135-3.309 6.201-6.992 6.201-3.91 0-6.355-2.553-7.333-7.666l-11.386-59.65-12.516 61.229c-.83 4.061-2.97 6.088-6.429 6.088-3.533 0-5.79-2.066-6.765-6.201l-13.417-56.152c-.681-2.857-1.522-4.793-2.538-5.807-1.014-1.014-2.613-1.523-4.793-1.523h-.788l-2.481.338c-2.406 0-3.608-1.258-3.608-3.775 0-2.668 1.315-4.005 3.947-4.005 1.052 0 2.257.114 3.608.338 4.058.679 8.008 1.015 11.841 1.015 1.804 0 5.935-.373 12.401-1.125a24.495 24.495 0 0 1 3.271-.228c2.703 0 4.058 1.241 4.058 3.72 0 2.708-1.654 4.061-4.96 4.061-.677 0-1.711-.073-3.1-.226-1.393-.147-2.427-.226-3.102-.226-2.634 0-3.949 1.239-3.949 3.723 0 .902.116 1.955.341 3.154l.678 3.608zM867.2 390.734c-10.001 0-17.913-3.604-23.736-10.824-5.829-7.216-8.739-16.984-8.739-29.314 0-12.479 2.932-22.271 8.796-29.375 5.862-7.104 13.942-10.656 24.243-10.656 9.846 0 17.683 3.461 23.509 10.375 5.823 6.918 8.739 16.275 8.739 28.076 0 12.78-2.949 22.931-8.851 30.443-5.903 7.52-13.89 11.275-23.961 11.275zm.225-72.05c-7.217 0-12.82 2.783-16.801 8.346-3.986 5.562-5.977 13.382-5.977 23.451 0 10.225 1.99 18.138 5.977 23.738 3.98 5.598 9.546 8.398 16.687 8.398 6.992 0 12.537-2.912 16.631-8.738 4.098-5.824 6.146-13.738 6.146-23.734 0-10.072-1.953-17.832-5.864-23.285-3.909-5.45-9.51-8.176-16.799-8.176zM920.871 355.443V328.042c0-5.561-1.902-8.346-5.705-8.346-.969 0-1.714.105-2.236.318-1.193.315-2.163.473-2.907.473-.975 0-1.794-.365-2.466-1.104-.672-.733-1.003-1.643-1.003-2.728 0-2.706 1.577-4.062 4.735-4.062.375 0 .938.04 1.688.114l7.783.787c2.931.301 6.201.451 9.809.451 1.955 0 6.162-.111 12.63-.336l12.966-.451c1.731-.076 3.761-.189 6.09-.338a23.673 23.673 0 0 1 3.381-.228c3.985 0 5.979 1.769 5.979 5.301 0 1.351-.189 3.421-.563 6.202-.378 2.78-.563 4.887-.563 6.313 0 1.203.074 2.708.225 4.512.149 1.802.228 3.456.228 4.96 0 3.086-1.354 4.623-4.062 4.623-2.781 0-4.174-1.759-4.174-5.275 0-1.047.06-2.653.171-4.826.11-2.17.17-3.775.17-4.825 0-3.965-1.127-6.47-3.383-7.52-2.257-1.047-7.595-1.571-16.013-1.571-7.143 0-11.203.64-12.178 1.916-.752.98-1.127 4.436-1.127 10.375v8.344c0 2.106.282 3.402.846 3.89.563.488 2.125.733 4.681.733h3.717c4.888 0 7.333-1.802 7.333-5.412 0-.826-.098-1.955-.281-3.383-.188-1.428-.281-2.518-.281-3.271 0-2.857 1.352-4.284 4.055-4.284 2.56 0 3.836 1.654 3.836 4.961 0 .45-.088 1.352-.264 2.706l-.788 6.089c-.352 2.708-.527 4.736-.527 6.09 0 3.082.393 6.988 1.184 11.725a27.44 27.44 0 0 1 .396 4.513c0 2.931-1.352 4.396-4.058 4.396-2.557 0-3.833-1.578-3.833-4.736 0-.748.054-1.877.168-3.382.113-1.505.168-2.63.168-3.382 0-2.329-.639-3.834-1.918-4.512-.825-.525-2.557-.787-5.188-.787h-3.491c-2.635 0-4.247.297-4.85.893-.603.598-.902 2.24-.902 4.922v13.314c0 3.504.393 5.872 1.184 7.104.791 1.229 2.272 1.844 4.454 1.844h4.96c3.459 0 5.188 1.279 5.188 3.832 0 1.055-.393 1.956-1.184 2.709-.788.748-1.747 1.125-2.874 1.125-1.202 0-2.973-.188-5.302-.563-3.309-.524-7.066-.79-11.274-.79-2.706 0-5.602.229-8.683.68l-3.836.562c-.223 0-.488.039-.785.112h-.68c-3.309 0-4.958-1.354-4.958-4.057 0-2.406 1.163-3.609 3.492-3.609.302 0 1.276.076 2.931.223.83.229 1.618.34 2.37.34 2.032 0 3.438-.621 4.229-1.859.788-1.241 1.22-3.439 1.295-6.598v-17.816zM990.668 355.443V328.042c0-5.561-1.905-8.346-5.705-8.346-.969 0-1.716.105-2.238.318-1.191.315-2.16.473-2.907.473-.973 0-1.792-.365-2.464-1.104-.672-.733-1.005-1.643-1.005-2.728 0-2.706 1.576-4.062 4.735-4.062.374 0 .938.04 1.69.114l7.782.787c2.932.301 6.201.451 9.807.451 1.954 0 6.162-.111 12.63-.336l12.968-.451c1.729-.076 3.758-.189 6.087-.338a23.746 23.746 0 0 1 3.384-.228c3.983 0 5.979 1.769 5.979 5.301 0 1.351-.191 3.421-.563 6.202-.377 2.78-.563 4.887-.563 6.313 0 1.203.072 2.708.223 4.512.152 1.802.228 3.456.228 4.96 0 3.086-1.353 4.623-4.062 4.623-2.778 0-4.172-1.759-4.172-5.275 0-1.047.058-2.653.171-4.826.111-2.17.168-3.775.168-4.825 0-3.965-1.127-6.47-3.381-7.52-2.257-1.047-7.594-1.571-16.013-1.571-7.142 0-11.202.64-12.18 1.916-.752.98-1.127 4.436-1.127 10.375v8.344c0 2.106.282 3.402.846 3.89.563.488 2.124.733 4.681.733h3.72c4.885 0 7.33-1.802 7.33-5.412 0-.826-.096-1.955-.281-3.383-.189-1.428-.282-2.518-.282-3.271 0-2.857 1.354-4.284 4.059-4.284 2.556 0 3.833 1.654 3.833 4.961 0 .45-.085 1.352-.261 2.706l-.789 6.089c-.352 2.708-.527 4.736-.527 6.09 0 3.082.394 6.988 1.185 11.725.261 1.581.393 3.086.393 4.513 0 2.931-1.35 4.396-4.059 4.396-2.556 0-3.833-1.578-3.833-4.736 0-.748.055-1.877.171-3.382.111-1.505.165-2.63.165-3.382 0-2.329-.636-3.834-1.915-4.512-.827-.525-2.557-.787-5.188-.787h-3.495c-2.634 0-4.246.297-4.847.893-.602.598-.904 2.24-.904 4.922v13.314c0 3.504.396 5.872 1.184 7.104.791 1.229 2.272 1.844 4.456 1.844h4.96c3.458 0 5.185 1.279 5.185 3.832 0 1.055-.393 1.956-1.184 2.709-.786.748-1.747 1.125-2.872 1.125-1.204 0-2.972-.188-5.304-.563-3.309-.524-7.064-.79-11.272-.79-2.706 0-5.604.229-8.685.68l-3.833.562c-.226 0-.489.039-.789.112h-.677c-3.309 0-4.96-1.354-4.96-4.057 0-2.406 1.165-3.609 3.494-3.609.3 0 1.277.076 2.932.223.829.229 1.615.34 2.367.34 2.032 0 3.44-.621 4.231-1.859.786-1.241 1.218-3.439 1.295-6.598v-17.816zM1060.688 328.043c0-5.561-1.915-8.346-5.748-8.346-1.055 0-1.844.078-2.368.227-1.204.226-2.218.34-3.045.34-.979 0-1.804-.359-2.479-1.072-.68-.713-1.016-1.596-1.016-2.648 0-2.63 1.651-3.948 4.96-3.948.452 0 .977.04 1.579.114l5.977.787c2.256.301 4.585.451 6.991.451 2.329 0 4.883-.185 7.667-.562l5.076-.676a13.099 13.099 0 0 1 1.577-.114c3.306 0 4.96 1.318 4.96 3.948 0 1.053-.336 1.936-1.016 2.648-.675.713-1.502 1.072-2.479 1.072-.752 0-1.765-.114-3.042-.34-.529-.148-1.318-.227-2.367-.227-3.839 0-5.754 2.785-5.754 8.346v45.215c0 5.638 1.915 8.457 5.754 8.457.597 0 1.388-.073 2.367-.225 1.427-.227 2.44-.338 3.042-.338 2.329 0 3.495 1.203 3.495 3.609 0 2.703-1.654 4.057-4.96 4.057h-.791a3.41 3.41 0 0 0-.786-.112l-5.867-.901a40.743 40.743 0 0 0-6.201-.451c-3.158 0-5.976.188-8.457.562l-5.186.79c-.152 0-.413.039-.788.112h-.902c-3.236 0-4.849-1.354-4.849-4.057 0-2.406 1.163-3.609 3.494-3.609.375 0 1.391.076 3.045.223.827.229 1.615.34 2.368.34 3.833 0 5.748-2.819 5.748-8.457v-45.215zM1125.069 310.564c8.347 0 15.15 3.198 20.41 9.585v-1.271-1.271c-.15-.461-.225-.729-.225-.806-.15-1.693-.228-2.465-.228-2.312 0-2.617 1.168-3.927 3.502-3.927 2.477 0 3.717 1.578 3.717 4.736 0 .602-.075 2.405-.228 5.414-.449 3.758-.675 6.354-.675 7.78 0 2.028.13 4.097.386 6.2l.517 4.284v1.128c0 3.385-1.352 5.074-4.061 5.074-2.931 0-4.36-1.601-4.283-4.807v-4.027c.15-5.367-1.538-9.729-5.061-13.082-3.523-3.357-8.137-5.034-13.831-5.034-7.424 0-13.237 2.858-17.435 8.569-4.198 5.715-6.297 13.61-6.297 23.68 0 10.301 2.161 18.322 6.482 24.076 4.324 5.75 10.354 8.625 18.099 8.625 4.208 0 7.987-1.016 11.332-3.045 3.342-2.029 5.694-4.697 7.049-8.006.902-2.18 1.354-5.109 1.354-8.796 0-3.456 1.427-5.188 4.283-5.188 3.081 0 4.621 1.731 4.621 5.188 0 8.044-2.781 14.624-8.344 19.733-5.562 5.113-12.74 7.666-21.536 7.666-10.148 0-18.249-3.566-24.297-10.709-6.054-7.143-9.078-16.648-9.078-28.53 0-12.249 3.1-22.138 9.3-29.653 6.207-7.514 14.383-11.274 24.527-11.274zM1175.698 328.043c0-5.561-1.915-8.346-5.749-8.346-1.057 0-1.843.078-2.367.227-1.207.226-2.223.34-3.048.34-.977 0-1.804-.359-2.479-1.072-.68-.713-1.016-1.596-1.016-2.648 0-2.63 1.571-3.948 4.72-3.948.075 0 .639.04 1.683.114 11.238.753 16.48 1.127 15.733 1.127h1.125l27.08-.791c.525 0 2.472-.112 5.842-.336a53.586 53.586 0 0 1 3.26-.114c3.897 0 5.842 1.729 5.842 5.186 0 .604-.106 2.521-.32 5.751a98.995 98.995 0 0 0-.243 6.656c0 2.63.064 4.471.188 5.521.251 2.184.375 3.799.375 4.849 0 2.857-1.334 4.284-3.999 4.284-2.673 0-4.004-1.99-4.004-5.973v-5.865c0-6.314-1.318-10.035-3.949-11.162-1.954-.825-6.987-1.242-15.108-1.242-5.338 0-8.496.115-9.474.34-3.23.828-4.846 3.084-4.846 6.764V338.981c0 3.009.664 4.737 2.003 5.188.517.148 1.406.223 2.667.223h4.561c4.67 0 7.004-1.612 7.004-4.848 0-.902-.093-2.066-.281-3.494s-.282-2.707-.282-3.834c0-3.008 1.337-4.512 4.004-4.512 2.671 0 4.004 1.619 4.004 4.852 0 .602-.242 2.932-.729 6.988-.416 3.46-.626 6.503-.626 9.137 0 1.504.15 4.168.453 8.002.072.605.261 1.916.563 3.949.225 1.654.338 2.969.338 3.945 0 2.707-1.354 4.061-4.058 4.061-2.634 0-3.95-1.581-3.95-4.736 0-.828.094-2.031.282-3.609.188-1.576.281-2.779.281-3.609 0-3.229-2.14-4.848-6.426-4.848h-5.073c-2.18 0-3.513.378-4.004 1.13-.489.751-.731 2.367-.731 4.848v6.991c0 1.203.038 2.816.11 4.848.078 2.48.117 4.135.117 4.961.072 3.008.674 4.889 1.801 5.639.827.527 2.779.789 5.865.789h15.333c4.436 0 7.478-.658 9.132-1.975 1.654-1.314 2.484-3.775 2.484-7.384 0-1.128-.057-2.8-.171-5.018-.111-2.218-.168-3.892-.168-5.017 0-3.384 1.334-5.076 4.004-5.076 2.817 0 4.227 1.73 4.227 5.187 0 1.354-.055 3.421-.171 6.202-.111 2.783-.165 4.848-.165 6.201 0 1.056.054 2.614.165 4.682.116 2.066.171 3.625.171 4.678 0 3.532-1.729 5.299-5.188 5.299-.825 0-2.141-.073-3.945-.224-.901-.077-2.556-.114-4.96-.114.525 0-2.409-.074-8.796-.226-6.393-.149-11.918-.224-16.576-.224-7.064 0-13.981.224-20.748.675-.3 0-.642.039-1.014.112h-.677c-3.156 0-4.735-1.354-4.735-4.057 0-2.406 1.165-3.609 3.494-3.609.375 0 1.394.076 3.048.223.824.229 1.613.34 2.367.34 3.834 0 5.749-2.819 5.749-8.457v-45.217zM1267.034 358.147c0-2.63 1.5-3.946 4.509-3.946h17.589c3.009 0 4.514 1.281 4.514 3.835 0 2.706-1.505 4.061-4.514 4.061h-17.589c-3.009 0-4.509-1.316-4.509-3.95z"/></g><g><path d="M338.413 20.912l.01.038-3.441-1.355c-.103-.041-21.457-7.148-32.996-7.148-14.704 0-24.645 6.311-29.545 18.757-7.175 16.95 3.226 63.419 13.282 108.358 12.146 54.268 23.617 105.525 10.946 122.817-10.706 14.028-39.219 15.539-50.984 15.539h-.001a88.23 88.23 0 0 1-3.092-.046 85.94 85.94 0 0 1-3.091.046c-11.612 0-39.53-1.48-50.52-14.971-7.277-2.314-13.877-5.819-17.919-11.115-12.7-17.331-1.229-68.589 10.917-122.856 10.057-44.938 20.457-91.408 13.306-108.3-1.489-3.783-3.313-7.022-5.44-9.761C184.301 3.786 176.621.185 166.871.156c-4.023-.012-8.577 1.024-11.353 1.778a48.078 48.078 0 0 0-2.58.766C63.918 32.957-.133 117.247-.133 216.501c0 124.684 101.077 225.761 225.761 225.761 124.686 0 225.762-101.077 225.762-225.761 0-83.6-45.449-156.567-112.977-195.589z"/><path d="M242.487 272.873l.103-.004.105.004c.044.002 1.14.045 2.988.045 8.598.001 37.396-.976 46.981-13.532 11.3-15.423-.984-70.308-11.821-118.732-10.7-47.812-20.808-92.973-13.031-111.341 5.623-14.284 17.448-21.866 34.173-21.866 3.379 0 8.415.832 13.503 1.91a217.996 217.996 0 0 0-5.568-2.34l.003.12-3.441-1.356c-.103-.041-10.439-3.92-21.979-3.92-14.704 0-24.645 6.311-29.545 18.758-7.175 16.949 3.226 63.419 13.282 108.357 12.146 54.268 23.617 105.525 10.946 122.817-10.706 14.028-39.219 15.539-50.984 15.539h-.001a92.27 92.27 0 0 1-3.092-.045c-.351.012-1.438.045-3.091.045-5.068 0-13.247-.283-21.768-1.721 12.537 6.675 32.365 7.307 39.25 7.307 1.848 0 2.94-.043 2.987-.045z"/><path fill="#FFF" d="M301.985 7.446c-16.725 0-28.55 7.582-34.173 21.866-7.776 18.368 2.331 63.529 13.031 111.341 10.837 48.425 23.121 103.31 11.821 118.732-9.585 12.557-38.384 13.533-46.981 13.532a81.09 81.09 0 0 1-2.988-.045l-.105-.004-.103.004c-.047.002-1.14.045-2.986.045-6.885 0-26.713-.632-39.25-7.307-3.771-.637-7.605-1.499-11.27-2.664 10.989 13.49 38.907 14.971 50.52 14.971 1.652 0 2.74-.032 3.091-.046a88.23 88.23 0 0 0 3.092.046h.001c11.766 0 40.278-1.511 50.984-15.539 12.671-17.292 1.199-68.55-10.946-122.817-10.057-44.939-20.457-91.408-13.282-108.358 4.9-12.446 14.841-18.757 29.545-18.757 11.539 0 32.894 7.107 32.996 7.148l3.441 1.355-.01-.038a225.274 225.274 0 0 0-22.925-11.556c-5.088-1.077-10.124-1.909-13.503-1.909z"/><path d="M166.871.156c9.75.028 17.43 3.63 22.974 10.759 10.188 4.961 19.824 12.477 22.923 20.347 7.151 16.892-3.249 63.36-13.306 108.3-12.146 54.268-23.617 105.525-10.917 122.857.139.181.292.351.437.528 3.664 1.165 7.499 2.027 11.27 2.664-3.121-1.662-5.798-3.692-7.702-6.188-11.329-15.461.955-70.346 11.792-118.771 10.7-47.812 20.808-92.973 13.056-111.282C209.707 9.842 179.748 0 168.918 0a48.158 48.158 0 0 0-13.399 1.935c2.775-.754 7.329-1.79 11.352-1.779z"/></g></svg>