<?xml version="1.0" encoding="utf-8"?>
<!-- Generator: Adobe Illustrator 16.0.0, SVG Export Plug-In . SVG Version: 6.00 Build 0)  -->
<!DOCTYPE svg PUBLIC "-//W3C//DTD SVG 1.1//EN" "http://www.w3.org/Graphics/SVG/1.1/DTD/svg11.dtd">
<svg version="1.1" id="Layer_3" xmlns="http://www.w3.org/2000/svg" xmlns:xlink="http://www.w3.org/1999/xlink" x="0px" y="0px"
	 width="1457.223px" height="442.262px" viewBox="0 0 1457.223 442.262" enable-background="new 0 0 1457.223 442.262"
	 xml:space="preserve">
<g>
	<g>
		<path d="M733.07,434.287v-3.36c1.274,0.83,2.621,1.413,4.043,1.748c1.422,0.336,2.626,0.503,3.617,0.503
			c1.602,0,2.758-0.258,3.462-0.775s1.058-1.163,1.058-1.936c0-0.514-0.164-0.951-0.494-1.314s-1.149-0.812-2.456-1.347
			l-1.092-0.445l-2.201-0.869c-2.366-0.921-3.855-1.774-4.47-2.559c-0.625-0.772-0.938-1.718-0.938-2.832
			c0-1.569,0.606-2.859,1.819-3.871c1.213-1.013,3.18-1.519,5.901-1.519c2.038,0,3.968,0.295,5.789,0.887v2.884
			c-2.096-0.751-4.065-1.128-5.911-1.128c-1.344,0-2.396,0.237-3.152,0.709c-0.758,0.472-1.136,1.061-1.136,1.766
			c0,0.683,0.329,1.229,0.987,1.638c0.65,0.409,1.708,0.881,3.176,1.415l2.152,0.786c1.971,0.715,3.352,1.495,4.145,2.336
			c0.794,0.841,1.189,1.895,1.189,3.155c0,1.649-0.633,3.005-1.9,4.068c-1.27,1.063-3.297,1.595-6.082,1.595
			C738.143,435.821,735.641,435.311,733.07,434.287z"/>
		<path d="M761.652,435.821c-2.727,0-4.908-0.952-6.545-2.856c-1.636-1.905-2.454-4.308-2.454-7.206c0-2.901,0.818-5.3,2.454-7.2
			c1.637-1.898,3.818-2.848,6.545-2.848c2.715,0,4.891,0.949,6.526,2.848c1.636,1.9,2.455,4.299,2.455,7.2
			c0,2.898-0.819,5.301-2.455,7.206C766.543,434.869,764.367,435.821,761.652,435.821z M761.652,433.178
			c1.691,0,3.036-0.66,4.036-1.979c0.999-1.318,1.498-3.133,1.498-5.44c0-2.298-0.499-4.106-1.498-5.426
			c-1-1.319-2.345-1.979-4.036-1.979c-1.703,0-3.055,0.66-4.054,1.979c-1,1.319-1.499,3.128-1.499,5.426
			c0,2.308,0.499,4.122,1.499,5.44C758.598,432.518,759.949,433.178,761.652,433.178z"/>
		<path d="M790.812,434.747c-2.125,0.717-4.15,1.074-6.072,1.074c-1.91,0-3.607-0.44-5.091-1.321
			c-1.485-0.882-2.642-2.075-3.472-3.583c-0.83-1.507-1.246-3.22-1.246-5.143c0-2.888,0.941-5.287,2.823-7.198
			c1.882-1.91,4.155-2.865,6.815-2.865c1.967,0,4.049,0.369,6.242,1.109v3.053c-2.216-1.012-4.201-1.52-5.953-1.52
			c-1.159,0-2.251,0.288-3.274,0.862s-1.813,1.47-2.372,2.687c-0.557,1.218-0.835,2.468-0.835,3.752
			c0,1.718,0.537,3.355,1.612,4.913c1.074,1.559,2.761,2.338,5.059,2.338c0.692,0,1.375-0.049,2.047-0.146
			c0.67-0.097,1.91-0.451,3.717-1.065V434.747z"/>
		<path d="M801.083,435.293v-16.409h-5.288v-2.646h8.461v16.412h5.306v2.643H801.083z M800.571,409.356
			c0-0.714,0.243-1.246,0.731-1.597c0.486-0.352,0.945-0.527,1.375-0.527c0.441,0,0.906,0.176,1.393,0.527
			c0.488,0.351,0.731,0.883,0.731,1.597c0,0.703-0.243,1.229-0.731,1.579c-0.486,0.352-0.951,0.527-1.393,0.527
			c-0.43,0-0.889-0.176-1.375-0.527C800.814,410.586,800.571,410.06,800.571,409.356z"/>
		<path d="M832.556,434.025c-2.536,1.198-4.935,1.796-7.198,1.796c-1.718,0-3.253-0.426-4.605-1.277
			c-1.354-0.853-2.438-2.07-3.25-3.656c-0.812-1.584-1.22-3.281-1.22-5.088c0-1.738,0.388-3.408,1.16-5.011
			c0.772-1.602,1.854-2.849,3.241-3.74s2.934-1.338,4.64-1.338c2.263,0,4.079,0.807,5.45,2.418c1.37,1.612,2.055,4.1,2.055,7.459
			v0.681h-13.135c0,1.323,0.276,2.532,0.828,3.627c0.552,1.093,1.275,1.915,2.175,2.462c0.899,0.548,1.923,0.82,3.07,0.82
			c2.047,0,4.311-0.684,6.789-2.051V434.025z M819.883,423.898h9.5v-0.46c0-1.553-0.381-2.788-1.144-3.707
			c-0.761-0.918-1.778-1.378-3.053-1.378c-1.284,0-2.397,0.469-3.335,1.403C820.913,420.693,820.256,422.074,819.883,423.898z
			 M821.639,413.322l5.031-5.561h3.702l-5.817,5.561H821.639z"/>
		<path d="M853.607,434.524c-1.491,0.626-2.571,0.999-3.243,1.119c-0.671,0.118-1.319,0.178-1.943,0.178
			c-1.331,0-2.548-0.255-3.651-0.767c-1.103-0.512-1.936-1.269-2.498-2.269c-0.564-1.001-0.846-2.548-0.846-4.64v-7.678h-4.758
			v-2.643h4.758v-7.677h3.174v7.677h8.478v2.643H844.6v7.626c0,1.535,0.182,2.618,0.547,3.25c0.363,0.63,0.85,1.095,1.457,1.39
			c0.609,0.295,1.328,0.443,2.158,0.443c1.534,0,3.149-0.483,4.846-1.45V434.524z"/>
		<path d="M874.486,434.025c-2.537,1.198-4.936,1.796-7.199,1.796c-1.717,0-3.253-0.426-4.605-1.277
			c-1.354-0.853-2.438-2.07-3.25-3.656c-0.812-1.584-1.219-3.281-1.219-5.088c0-1.738,0.387-3.408,1.16-5.011
			c0.771-1.602,1.854-2.849,3.24-3.74s2.934-1.338,4.64-1.338c2.264,0,4.079,0.807,5.45,2.418c1.37,1.612,2.056,4.1,2.056,7.459
			v0.681h-13.135c0,1.323,0.276,2.532,0.827,3.627c0.553,1.093,1.276,1.915,2.175,2.462c0.899,0.548,1.923,0.82,3.071,0.82
			c2.047,0,4.311-0.684,6.789-2.051V434.025z M861.812,423.898h9.5v-0.46c0-1.553-0.381-2.788-1.143-3.707
			c-0.762-0.918-1.779-1.378-3.053-1.378c-1.285,0-2.397,0.469-3.335,1.403C862.844,420.693,862.186,422.074,861.812,423.898z
			 M863.568,413.322l5.031-5.561h3.703l-5.818,5.561H863.568z"/>
		<path d="M916.603,434.747c-2.126,0.717-4.15,1.074-6.073,1.074c-1.91,0-3.606-0.44-5.09-1.321
			c-1.484-0.882-2.643-2.075-3.471-3.583c-0.831-1.507-1.246-3.22-1.246-5.143c0-2.888,0.939-5.287,2.822-7.198
			c1.883-1.91,4.154-2.865,6.816-2.865c1.967,0,4.047,0.369,6.241,1.109v3.053c-2.216-1.012-4.2-1.52-5.952-1.52
			c-1.16,0-2.252,0.288-3.275,0.862s-1.814,1.47-2.371,2.687c-0.557,1.218-0.836,2.468-0.836,3.752c0,1.718,0.537,3.355,1.612,4.913
			c1.074,1.559,2.761,2.338,5.058,2.338c0.693,0,1.375-0.049,2.048-0.146c0.671-0.097,1.91-0.451,3.717-1.065V434.747z"/>
		<path d="M926.873,435.293v-16.409h-5.288v-2.646h8.461v16.412h5.306v2.643H926.873z M926.361,409.356
			c0-0.714,0.243-1.246,0.731-1.597c0.486-0.352,0.944-0.527,1.375-0.527c0.442,0,0.906,0.176,1.393,0.527
			c0.488,0.351,0.731,0.883,0.731,1.597c0,0.703-0.243,1.229-0.731,1.579c-0.486,0.352-0.95,0.527-1.393,0.527
			c-0.431,0-0.889-0.176-1.375-0.527C926.604,410.586,926.361,410.06,926.361,409.356z"/>
		<path d="M948.706,435.293l-8.28-19.055h3.48l6.541,15.099l6.649-15.099h3.185l-8.34,19.055H948.706z"/>
		<path d="M968.803,435.293v-16.409h-5.287v-2.646h8.461v16.412h5.305v2.643H968.803z M968.291,409.356
			c0-0.714,0.244-1.246,0.731-1.597c0.487-0.352,0.944-0.527,1.375-0.527c0.442,0,0.907,0.176,1.394,0.527
			c0.487,0.351,0.73,0.883,0.73,1.597c0,0.703-0.243,1.229-0.73,1.579c-0.486,0.352-0.951,0.527-1.394,0.527
			c-0.431,0-0.888-0.176-1.375-0.527C968.535,410.586,968.291,410.06,968.291,409.356z"/>
		<path d="M989.545,435.293v-24.887h-5.695v-2.645h8.87v24.889h5.952v2.643H989.545z"/>
		<path d="M1021.24,434.025c-2.535,1.198-4.934,1.796-7.197,1.796c-1.719,0-3.254-0.426-4.606-1.277
			c-1.353-0.853-2.437-2.07-3.249-3.656c-0.813-1.584-1.22-3.281-1.22-5.088c0-1.738,0.387-3.408,1.159-5.011
			c0.773-1.602,1.854-2.849,3.242-3.74c1.387-0.892,2.934-1.338,4.639-1.338c2.264,0,4.08,0.807,5.45,2.418
			c1.37,1.612,2.056,4.1,2.056,7.459v0.681h-13.135c0,1.323,0.276,2.532,0.828,3.627c0.552,1.093,1.275,1.915,2.174,2.462
			c0.899,0.548,1.923,0.82,3.07,0.82c2.047,0,4.311-0.684,6.789-2.051V434.025z M1008.567,423.898h9.501v-0.46
			c0-1.553-0.381-2.788-1.145-3.707c-0.76-0.918-1.777-1.378-3.053-1.378c-1.283,0-2.396,0.469-3.334,1.403
			C1009.599,420.693,1008.941,422.074,1008.567,423.898z"/>
		<path d="M1060.066,431.01c-0.969,1.593-2.131,2.793-3.493,3.602c-1.36,0.807-2.609,1.21-3.749,1.21
			c-1.594,0-3.025-0.687-4.295-2.063c-1.27-1.376-1.904-3.463-1.904-6.261c0-2.206,0.421-4.176,1.264-5.909
			c0.842-1.734,1.97-3.104,3.382-4.112c1.412-1.006,3.159-1.51,5.243-1.51c0.604,0,1.515,0.063,2.732,0.188
			c0.183,0.022,0.455,0.052,0.82,0.084v-8.477h3.173v27.531h-3.173V431.01z M1060.066,427.236v-8.183
			c-1.127-0.295-2.176-0.443-3.145-0.443c-1.959,0-3.592,0.757-4.895,2.271c-1.305,1.514-1.957,3.576-1.957,6.182
			c0,1.892,0.355,3.317,1.068,4.279c0.711,0.962,1.523,1.443,2.434,1.443c0.992,0,2.086-0.501,3.281-1.504
			C1058.051,430.281,1059.12,428.932,1060.066,427.236z"/>
		<path d="M1072.877,419.668v-2.133c0.819-0.215,1.442-0.521,1.868-0.917c0.427-0.397,0.769-0.903,1.023-1.521
			c0.257-0.617,0.384-1.368,0.384-2.252c-1.057,0-1.836-0.298-2.338-0.896c-0.499-0.597-0.75-1.231-0.75-1.901
			c0-0.797,0.279-1.465,0.837-2.005c0.558-0.539,1.206-0.811,1.944-0.811c0.955,0,1.779,0.412,2.473,1.235
			c0.694,0.823,1.041,1.95,1.041,3.382c0,1.261-0.272,2.441-0.818,3.544c-0.546,1.101-1.287,2.044-2.227,2.827
			C1075.377,419.004,1074.23,419.485,1072.877,419.668z"/>
		<path d="M1101.778,431.03c-0.968,1.586-2.13,2.781-3.489,3.585s-2.607,1.206-3.744,1.206c-1.594,0-3.023-0.687-4.292-2.063
			c-1.27-1.376-1.903-3.463-1.903-6.261c0-2.206,0.422-4.176,1.264-5.909c0.843-1.734,1.971-3.104,3.383-4.112
			c1.41-1.006,3.158-1.51,5.242-1.51c0.604,0,1.512,0.063,2.726,0.188c0.183,0.022,0.454,0.052,0.817,0.084h3.184v13.455
			c0,2.3,0.244,4.165,0.732,5.6h-3.308C1102.133,434.252,1101.93,432.831,1101.778,431.03z M1101.791,427.236v-8.183
			c-1.127-0.295-2.176-0.443-3.145-0.443c-1.959,0-3.59,0.757-4.895,2.271c-1.304,1.514-1.956,3.576-1.956,6.182
			c0,1.892,0.356,3.317,1.067,4.279c0.713,0.962,1.523,1.443,2.435,1.443c0.992,0,2.085-0.501,3.28-1.504
			C1099.775,430.281,1100.846,428.932,1101.791,427.236z"/>
		<path d="M1116.426,435.293l-8.279-19.055h3.479l6.542,15.099l6.648-15.099h3.186l-8.341,19.055H1116.426z"/>
		<path d="M1139.022,435.821c-2.726,0-4.908-0.952-6.544-2.856c-1.637-1.905-2.455-4.308-2.455-7.206c0-2.901,0.818-5.3,2.455-7.2
			c1.636-1.898,3.818-2.848,6.544-2.848c2.715,0,4.891,0.949,6.526,2.848c1.637,1.9,2.455,4.299,2.455,7.2
			c0,2.898-0.818,5.301-2.455,7.206C1143.913,434.869,1141.737,435.821,1139.022,435.821z M1139.022,433.178
			c1.69,0,3.036-0.66,4.036-1.979s1.498-3.133,1.498-5.44c0-2.298-0.498-4.106-1.498-5.426s-2.346-1.979-4.036-1.979
			c-1.702,0-3.054,0.66-4.054,1.979s-1.498,3.128-1.498,5.426c0,2.308,0.498,4.122,1.498,5.44S1137.32,433.178,1139.022,433.178z"/>
		<path d="M1168.184,434.747c-2.127,0.717-4.15,1.074-6.073,1.074c-1.911,0-3.607-0.44-5.091-1.321
			c-1.484-0.882-2.642-2.075-3.471-3.583c-0.831-1.507-1.246-3.22-1.246-5.143c0-2.888,0.94-5.287,2.822-7.198
			c1.883-1.91,4.155-2.865,6.816-2.865c1.967,0,4.048,0.369,6.242,1.109v3.053c-2.217-1.012-4.201-1.52-5.953-1.52
			c-1.16,0-2.252,0.288-3.275,0.862s-1.814,1.47-2.371,2.687c-0.557,1.218-0.836,2.468-0.836,3.752c0,1.718,0.537,3.355,1.613,4.913
			c1.073,1.559,2.76,2.338,5.058,2.338c0.692,0,1.375-0.049,2.047-0.146c0.671-0.097,1.911-0.451,3.718-1.065V434.747z"/>
		<path d="M1185.639,431.03c-0.967,1.586-2.131,2.781-3.488,3.585c-1.361,0.804-2.608,1.206-3.746,1.206
			c-1.594,0-3.023-0.687-4.291-2.063c-1.27-1.376-1.903-3.463-1.903-6.261c0-2.206,0.421-4.176,1.264-5.909
			c0.843-1.734,1.97-3.104,3.382-4.112c1.411-1.006,3.158-1.51,5.242-1.51c0.604,0,1.514,0.063,2.727,0.188
			c0.182,0.022,0.453,0.052,0.817,0.084h3.183v13.455c0,2.3,0.245,4.165,0.732,5.6h-3.307
			C1185.993,434.252,1185.789,432.831,1185.639,431.03z M1185.652,427.236v-8.183c-1.128-0.295-2.177-0.443-3.145-0.443
			c-1.96,0-3.592,0.757-4.896,2.271c-1.304,1.514-1.956,3.576-1.956,6.182c0,1.892,0.355,3.317,1.067,4.279s1.523,1.443,2.435,1.443
			c0.992,0,2.085-0.501,3.281-1.504C1183.636,430.281,1184.705,428.932,1185.652,427.236z"/>
		<path d="M1210.012,434.524c-1.49,0.626-2.57,0.999-3.242,1.119c-0.67,0.118-1.318,0.178-1.943,0.178
			c-1.332,0-2.548-0.255-3.652-0.767c-1.102-0.512-1.936-1.269-2.497-2.269c-0.563-1.001-0.846-2.548-0.846-4.64v-7.678h-4.759
			v-2.643h4.759v-7.677h3.175v7.677h8.477v2.643h-8.477v7.626c0,1.535,0.181,2.618,0.545,3.25c0.363,0.63,0.851,1.095,1.459,1.39
			c0.607,0.295,1.327,0.443,2.158,0.443c1.533,0,3.148-0.483,4.844-1.45V434.524z"/>
		<path d="M1215.266,434.287v-3.36c1.274,0.83,2.621,1.413,4.044,1.748c1.421,0.336,2.626,0.503,3.616,0.503
			c1.602,0,2.758-0.258,3.462-0.775s1.058-1.163,1.058-1.936c0-0.514-0.164-0.951-0.494-1.314s-1.149-0.812-2.456-1.347
			l-1.092-0.445l-2.201-0.869c-2.366-0.921-3.854-1.774-4.47-2.559c-0.625-0.772-0.938-1.718-0.938-2.832
			c0-1.569,0.606-2.859,1.819-3.871c1.213-1.013,3.18-1.519,5.901-1.519c2.038,0,3.968,0.295,5.789,0.887v2.884
			c-2.096-0.751-4.065-1.128-5.911-1.128c-1.344,0-2.395,0.237-3.152,0.709s-1.136,1.061-1.136,1.766
			c0,0.683,0.329,1.229,0.988,1.638c0.649,0.409,1.707,0.881,3.176,1.415l2.151,0.786c1.971,0.715,3.352,1.495,4.145,2.336
			c0.794,0.841,1.189,1.895,1.189,3.155c0,1.649-0.633,3.005-1.9,4.068c-1.269,1.063-3.297,1.595-6.082,1.595
			C1220.338,435.821,1217.836,435.311,1215.266,434.287z"/>
	</g>
	<g>
		<path d="M530.268,98.828c1.925,8.161,4.354,14.556,7.285,19.175c2.94,4.625,8.924,12.05,17.951,22.274
			c9.037,10.13,14.705,17.356,17.005,21.683c2.249,4.326,3.364,13.522,3.364,27.581c0,6.395-0.588,11.212-1.762,14.455
			c-1.184,3.247-2.982,4.869-5.4,4.869c-2.414,0-4.096-1.277-5.045-3.833c-0.947-2.557-1.425-8.308-1.425-17.261v-29.058h-33.745
			v15.638c0,17.896,1.064,31.712,3.189,41.448c2.13,9.732,6.633,17.749,13.507,24.041c6.876,6.294,15.175,9.441,24.901,9.441
			c8.858,0,16.628-2.732,23.306-8.187c6.669-5.46,11.173-12.218,13.507-20.282c2.329-8.062,3.489-20.601,3.489-37.615
			c0-23.4-2.101-40.365-6.296-50.886c-4.2-10.522-14.388-23.99-30.562-40.396c-2.364-2.387-4.245-4.595-5.832-6.69h-39.569
			C528.621,90.293,529.326,94.841,530.268,98.828z"/>
		<path d="M665.346,159.007h-12.51c0.75-16.809,2.379-41.423,4.877-73.78h-31.82l-12.347,159.039h37.563l2.189-42.925h12.993
			l1.955,42.925h37.127L691.538,85.227h-30.446C662.51,113.585,663.928,138.207,665.346,159.007z"/>
		<path d="M659.807,58.706c0.309,6.537,0.609,12.835,0.911,19.028h30.173l-6.295-72.277h-52.518l-5.604,72.277h31.82
			C658.771,71.638,659.27,65.317,659.807,58.706z"/>
		<path d="M758.325,94.774c-0.981,2.997-3.251,4.496-6.823,4.496c-0.857,0-2.07,0.05-3.619,0.146v-14.19h-36.338v159.039h42.027
			c14.62,0,24.285-1.428,28.999-4.277c4.723-2.854,8.161-8.169,10.321-15.942c2.153-7.772,3.233-19.727,3.233-35.863v-22.139
			c0-15.542-1.501-27.081-4.489-34.61c-2.99-7.529-8.688-12.913-17.084-16.163c7.535-2.944,12.581-7.169,15.145-12.674
			c1.756-3.779,2.896-9.604,3.443-17.37h-33.676C759.221,89.967,758.842,93.18,758.325,94.774z M759.787,181.135
			c0,9.638-0.705,15.687-2.105,18.143c-1.412,2.461-4.682,3.834-9.799,4.131V136.59c5.405,0.294,8.746,1.525,10.01,3.688
			c1.264,2.163,1.895,8.358,1.895,18.583V181.135z"/>
		<path d="M747.883,46.314c3.738,0.103,6.256,0.545,7.55,1.329c1.294,0.786,2.344,2.682,3.151,5.678
			c0.807,3.001,1.203,8.238,1.203,15.712c0,3.199-0.029,6.071-0.074,8.701h33.775c0.029-1.4,0.051-2.824,0.051-4.323
			c0-20.637-1.816-35.599-5.443-44.886c-3.619-9.285-8.381-15.451-14.279-18.5c-5.896-3.048-14.571-4.568-26.022-4.568h-36.249
			v72.277h36.338V46.314z"/>
		<path d="M854.078,96.541c-1.637,1.916-4.503,2.876-8.588,2.876v-14.19h-36.335v159.039h36.335V136.59
			c5.002,0,8.096,1.525,9.276,4.573c1.184,3.048,1.771,10.962,1.771,23.746v79.356h33.746v-62.983
			c0-19.274-0.303-31.049-0.905-35.327c-0.603-4.274-2.145-8.972-4.618-14.088c-2.478-5.111-7.311-9.192-14.502-12.24
			c7.941-1.278,13.268-5.113,15.97-11.506c1.925-4.536,3.145-12.212,3.702-22.895h-33.561
			C856.055,91.34,855.289,95.123,854.078,96.541z"/>
		<path d="M845.49,46.314c4.203,0,7.09,1.183,8.674,3.541c1.582,2.361,2.373,7.33,2.373,14.899v12.979h33.672
			c0.051-2.26,0.074-4.606,0.074-7.082c0-20.353-1.91-35.175-5.738-44.474c-3.826-9.288-8.777-15.065-14.844-17.328
			c-6.076-2.262-17.682-3.394-34.822-3.394h-25.724v72.277h36.335V46.314z"/>
		<path d="M947.903,159.007h-12.507c0.747-16.809,2.379-41.423,4.877-73.78h-31.82l-12.347,159.039h37.563l2.189-42.925h12.993
			l1.952,42.925h37.13L974.096,85.227h-30.443C945.07,113.585,946.485,138.207,947.903,159.007z"/>
		<path d="M942.365,58.706c0.309,6.537,0.61,12.835,0.91,19.028h30.176l-6.295-72.277h-52.518l-5.604,72.277h31.816
			C941.33,71.638,941.83,65.317,942.365,58.706z"/>
		<polygon points="1137.371,5.457 1090.099,5.457 1084.693,77.734 1137.371,77.734 		"/>
		<path d="M1076.592,56.228c-1.478-19.49-2.916-36.414-4.313-50.771h-47.015v72.277h53.156L1076.592,56.228z"/>
		<polygon points="1081.754,116.972 1079.061,85.227 1025.264,85.227 1025.264,244.266 1057.023,244.266 1057.068,86.731 
			1070.397,244.266 1092.926,244.266 1105.406,85.227 1084.127,85.227 		"/>
		<polygon points="1105.611,244.266 1137.371,244.266 1137.371,85.227 1105.576,85.227 		"/>
		<path d="M1199.857,85.553c0,8.851-0.646,14.676-1.94,17.481c-1.294,2.798-3.613,4.201-6.948,4.201
			c-0.75,0-1.637-0.048-2.672-0.146V85.227h-36.338v159.039h36.338v-96.173h9.754c7.938,0,14.367-1.866,19.289-5.605
			c4.918-3.734,8.297-9.093,10.134-16.077c1.845-6.979,2.762-18.092,2.762-33.336v-7.848h-30.378V85.553z"/>
		<path d="M1188.297,46.314c4.713,0,7.822,1.231,9.32,3.688c1.498,2.461,2.24,7.771,2.24,15.933v11.8h30.378v-5.457
			c0-14.944-0.469-25.985-1.418-33.117c-0.952-7.128-2.759-13.198-5.44-18.216c-2.674-5.013-6.67-8.851-11.994-11.506
			c-5.325-2.655-12.938-3.981-22.831-3.981h-36.593v72.277h36.338V46.314z"/>
		<path d="M1287.375,176.562c0,14.062-0.347,22.964-1.035,26.699c-0.691,3.734-2.278,5.604-4.746,5.604
			c-2.418,0-3.958-1.622-4.619-4.869c-0.662-3.243-0.994-11.8-0.994-25.663V85.227h-36.246c-0.053,5.827-0.089,12.178-0.089,19.207
			v40.857c0,24.587,0.345,41.794,1.035,51.628c0.691,9.836,2.851,18.929,6.47,27.287c3.632,8.359,8.42,14.628,14.377,18.804
			c5.957,4.183,12.67,6.272,20.146,6.272c7.888,0,14.794-2.214,20.713-6.639c5.93-4.427,10.638-10.77,14.117-19.028
			c3.475-8.259,5.548-17.378,6.215-27.361c0.662-9.978,0.992-26.968,0.992-50.963v-40.857c0-7.029-0.03-13.384-0.09-19.207h-36.246
			V176.562z"/>
		<path d="M1275.98,66.818c0-12.288,0.502-19.692,1.516-22.196c1.006-2.513,2.451-3.765,4.355-3.765c2.24,0,3.723,1.55,4.443,4.648
			c0.719,3.093,1.08,10.204,1.08,21.312v10.916h36.151c-0.169-10.812-0.448-19.172-0.852-24.931
			c-0.69-9.831-2.851-18.924-6.479-27.286c-3.619-8.355-8.41-14.624-14.367-18.808c-5.957-4.18-12.67-6.27-20.154-6.27
			c-7.88,0-14.786,2.215-20.713,6.641c-5.919,4.425-10.63,10.768-14.109,19.026c-3.482,8.261-5.554,17.383-6.215,27.365
			c-0.374,5.741-0.646,13.883-0.807,24.262h36.15V66.818z"/>
		<path d="M1414.672,5.457h-33.377c-3.465,27.259-6.191,51.325-8.197,72.277h29.008L1414.672,5.457z"/>
		<path d="M1362.354,5.457h-33.383l12.118,72.277h28.61C1368.236,60.256,1365.791,36.194,1362.354,5.457z"/>
		<path d="M1371.176,99.563c-0.163-3.886-0.457-8.679-0.884-14.337h-27.945l12.169,72.602v86.438h33.662v-86.438l12.629-72.602
			h-28.396C1371.962,90.173,1371.535,94.998,1371.176,99.563z"/>
		<rect x="1420.888" y="5.457" width="36.335" height="72.277"/>
		<rect x="1420.888" y="85.227" width="36.335" height="159.039"/>
		<polygon points="1105.406,85.227 1105.576,85.227 1105.576,83.044 		"/>
		<path d="M573.936,77.734h33.439v-9.438c0-18.98-1.08-32.43-3.23-40.348c-2.16-7.91-6.559-14.477-13.207-19.688
			c-6.646-5.213-14.691-7.82-24.121-7.82c-8.631,0-15.996,2.388-22.093,7.154c-6.105,4.774-10.52,11.386-13.252,19.839
			c-2.732,8.458-4.097,21.834-4.097,40.123c0,3.589,0.101,6.948,0.255,10.178h35.653c-0.042-0.133,0.029-0.284-0.016-0.416
			c-1.261-4.036-1.893-10.037-1.893-18.01c0-6.199,0.564-10.819,1.688-13.875c1.116-3.048,2.771-4.576,4.958-4.576
			c2.015,0,3.453,1.135,4.319,3.394c0.86,2.263,1.293,7.521,1.293,15.784v17.699l0,0"/>
	</g>
	<g>
		<path d="M530.362,352.353c0-3.019,1.724-4.528,5.177-4.528h20.188c3.45,0,5.177,1.47,5.177,4.401c0,3.105-1.727,4.66-5.177,4.66
			h-20.188C532.086,356.886,530.362,355.376,530.362,352.353z"/>
		<path d="M628.201,367.943c0,5.064,0.516,8.065,1.551,9.009c0.777,0.775,1.789,1.244,3.045,1.418
			c1.245,0.172,4.075,0.257,8.475,0.257h11.389c5.951,0,9.918-0.786,11.902-2.361c1.988-1.576,2.979-4.745,2.979-9.509
			c0-1.278-0.045-2.765-0.127-4.469c-0.179-3.321-0.262-5.317-0.262-6.002c0-3.742,1.51-5.615,4.53-5.615
			c3.622,0,5.438,1.73,5.438,5.178c0,1.037-0.05,1.856-0.134,2.458l-0.904,6.604c-0.258,1.899-0.389,3.882-0.389,5.953
			c0,1.209,0.107,2.996,0.323,5.369c0.214,2.372,0.323,4.165,0.323,5.37c0,3.882-2.198,5.823-6.601,5.823
			c-0.86,0-2.845-0.15-5.95-0.451c-2.071-0.151-5.264-0.301-9.58-0.455h-9.703h-20.705c-2.07,0-5.523,0.176-10.354,0.518
			c-0.693,0-1.877,0.066-3.559,0.194c-1.686,0.129-3,0.194-3.949,0.194c-3.622,0-5.435-1.554-5.435-4.659
			c0-2.759,1.338-4.14,4.011-4.14c0.691,0,1.727,0.129,3.105,0.386c1.38,0.261,2.416,0.39,3.109,0.39
			c4.399,0,6.598-3.236,6.598-9.707v-51.894c0-6.382-2.198-9.579-6.598-9.579c-1.213,0-2.115,0.09-2.717,0.262
			c-1.386,0.258-2.549,0.39-3.498,0.39c-1.119,0-2.07-0.412-2.846-1.23c-0.779-0.819-1.165-1.832-1.165-3.041
			c0-3.019,1.854-4.531,5.565-4.531c0.516,0,1.162,0.047,1.943,0.132l6.855,0.775c3.797,0.434,6.601,0.646,8.413,0.646
			c2.239,0,5.002-0.212,8.282-0.646l5.955-0.775c0.688-0.085,1.246-0.132,1.682-0.132c3.881,0,5.823,1.513,5.823,4.531
			c0,1.209-0.389,2.222-1.169,3.041c-0.773,0.818-1.727,1.23-2.845,1.23c-0.863,0-2.029-0.132-3.491-0.39
			c-0.609-0.172-1.514-0.262-2.721-0.262c-4.399,0-6.598,3.178-6.598,9.527V367.943z"/>
		<path d="M751.395,372.284l-4.654-12.681c-0.519-1.381-1.059-2.244-1.619-2.59c-0.564-0.345-1.706-0.518-3.427-0.518h-23.038
			c-1.727,0-2.914,0.305-3.561,0.907s-1.486,2.243-2.521,4.917l-3.753,9.964c-0.347,0.952-0.519,1.858-0.519,2.717
			c0,2.763,1.682,4.144,5.046,4.144c0.863,0,2.095-0.085,3.69-0.26c1.596-0.174,2.779-0.258,3.561-0.258
			c3.535,0,5.307,1.51,5.307,4.528c0,2.847-1.943,4.271-5.826,4.271c-0.688,0-1.641-0.088-2.846-0.26l-6.47-0.806
			c-1.214-0.154-3.195-0.227-5.954-0.227c-3.023,0-5.135,0.069-6.343,0.214l-5.435,0.649c-2.418,0.286-4.189,0.429-5.307,0.429
			c-3.365,0-5.047-1.424-5.047-4.271c0-3.019,1.638-4.528,4.916-4.528c0.691,0,1.21,0.172,1.555,0.518h1.682
			c2.328,0,4.1-0.906,5.307-2.725c0.52-0.694,1.377-2.729,2.59-6.104l24.068-65.309c1.38-3.637,4.098-5.454,8.155-5.454
			c3.967,0,6.599,1.814,7.892,5.436l23.166,64.189c1.465,4.059,2.803,6.731,4.011,8.024c1.208,1.297,2.935,1.942,5.18,1.942
			c0.688,0,1.204-0.059,1.552-0.172l3.622-0.346c3.278,0,4.919,1.421,4.919,4.268c0,3.022-1.641,4.531-4.919,4.531
			c-0.949,0-2.201-0.095-3.753-0.286c-5.438-0.672-9.49-1.006-12.163-1.006c-3.192,0-8.372,0.346-15.532,1.032
			c-1.811,0.172-3.193,0.26-4.139,0.26c-3.453,0-5.18-1.464-5.18-4.399c0-2.93,1.898-4.399,5.698-4.399
			c0.774,0,1.917,0.084,3.43,0.258c1.504,0.175,2.651,0.26,3.427,0.26c2.848,0,4.271-1.165,4.271-3.496
			C752.434,375.307,752.086,374.183,751.395,372.284z M742.08,345.886l-11.646-35.72l-11.905,35.72
			c-0.175,0.518-0.259,0.818-0.259,0.903c0,0.778,0.647,1.164,1.941,1.164h20.576c1.035,0,1.555-0.341,1.555-1.032
			C742.342,346.749,742.252,346.403,742.08,345.886z"/>
		<path d="M798.244,320.52l10.608,54.743l13.332-67.296c1.121-5.865,4.011-8.799,8.671-8.799c4.919,0,7.85,2.588,8.799,7.763
			l12.943,69.235l11-53.703c0.775-3.798,1.164-6.688,1.164-8.672c0-3.536-1.811-5.307-5.436-5.307c-0.779,0-1.898,0.089-3.363,0.258
			c-1.469,0.175-2.59,0.26-3.365,0.26c-3.714,0-5.568-1.509-5.568-4.531c0-2.932,1.816-4.399,5.436-4.399
			c1.383,0,2.803,0.087,4.271,0.261c7.072,0.863,11.732,1.292,13.979,1.292c1.721,0,4.29-0.257,7.699-0.774
			c3.405-0.518,5.975-0.778,7.701-0.778c3.188,0,4.787,1.557,4.787,4.668c0,2.842-1.554,4.263-4.66,4.263
			c-0.52,0-1.293-0.105-2.328-0.322c-1.035-0.218-1.811-0.323-2.329-0.323c-1.812,0-3.13,0.689-3.948,2.067
			c-0.822,1.38-1.793,4.487-2.91,9.321l-14.492,61.728c-1.125,4.745-3.797,7.117-8.025,7.117c-4.488,0-7.295-2.93-8.416-8.799
			l-13.068-68.46l-14.363,70.271c-0.953,4.66-3.409,6.987-7.379,6.987c-4.055,0-6.645-2.372-7.764-7.117l-15.398-64.446
			c-0.781-3.279-1.748-5.502-2.914-6.664c-1.162-1.165-2.999-1.749-5.5-1.749h-0.904l-2.848,0.389c-2.763,0-4.143-1.443-4.143-4.333
			c0-3.062,1.511-4.598,4.531-4.598c1.207,0,2.59,0.132,4.141,0.388c4.658,0.779,9.19,1.165,13.59,1.165
			c2.07,0,6.812-0.429,14.234-1.292c1.293-0.174,2.545-0.261,3.752-0.261c3.104,0,4.658,1.425,4.658,4.27
			c0,3.108-1.898,4.661-5.693,4.661c-0.777,0-1.963-0.085-3.557-0.26c-1.6-0.169-2.785-0.258-3.561-0.258
			c-3.022,0-4.532,1.421-4.532,4.271c0,1.035,0.134,2.244,0.392,3.621L798.244,320.52z"/>
		<path d="M964.799,389.754c-11.479,0-20.559-4.138-27.243-12.424c-6.689-8.281-10.03-19.493-10.03-33.645
			c0-14.322,3.364-25.56,10.096-33.714c6.729-8.153,16.002-12.229,27.824-12.229c11.299,0,20.294,3.971,26.98,11.906
			c6.684,7.94,10.031,18.68,10.031,32.224c0,14.668-3.386,26.318-10.158,34.94C985.523,385.444,976.355,389.754,964.799,389.754z
			 M965.057,307.061c-8.283,0-14.715,3.194-19.283,9.577c-4.574,6.386-6.859,15.358-6.859,26.916
			c0,11.734,2.285,20.816,6.859,27.244c4.568,6.426,10.955,9.64,19.152,9.64c8.024,0,14.389-3.342,19.087-10.03
			c4.702-6.684,7.055-15.766,7.055-27.239c0-11.561-2.243-20.467-6.731-26.725C979.851,310.188,973.422,307.061,965.057,307.061z"/>
		<path d="M1026.396,349.25v-10.871v-20.577c0-6.382-2.184-9.579-6.547-9.579c-1.113,0-1.967,0.122-2.566,0.365
			c-1.371,0.363-2.482,0.543-3.338,0.543c-1.117,0-2.059-0.418-2.83-1.267c-0.771-0.841-1.15-1.884-1.15-3.13
			c0-3.106,1.81-4.663,5.435-4.663c0.431,0,1.077,0.047,1.938,0.132l8.933,0.903c3.363,0.346,7.117,0.518,11.258,0.518
			c2.243,0,7.072-0.128,14.495-0.386l14.88-0.518c1.988-0.088,4.316-0.217,6.99-0.389c1.207-0.174,2.5-0.261,3.88-0.261
			c4.575,0,6.862,2.03,6.862,6.084c0,1.55-0.217,3.927-0.646,7.118c-0.434,3.19-0.647,5.608-0.647,7.246
			c0,1.381,0.086,3.107,0.259,5.179c0.172,2.067,0.26,3.966,0.26,5.692c0,3.541-1.554,5.306-4.66,5.306
			c-3.191,0-4.791-2.019-4.791-6.055c0-1.201,0.068-3.045,0.195-5.538c0.129-2.491,0.196-4.335,0.196-5.539
			c0-4.551-1.294-7.426-3.884-8.63c-2.59-1.201-8.715-1.804-18.377-1.804c-8.197,0-12.857,0.734-13.977,2.2
			c-0.863,1.124-1.293,5.09-1.293,11.906v9.577c0,2.417,0.323,3.904,0.971,4.464c0.646,0.561,2.438,0.841,5.371,0.841h4.267
			c5.61,0,8.417-2.067,8.417-6.211c0-0.947-0.113-2.244-0.324-3.882c-0.217-1.639-0.323-2.891-0.323-3.754
			c0-3.279,1.552-4.917,4.655-4.917c2.937,0,4.402,1.898,4.402,5.692c0,0.518-0.102,1.554-0.303,3.106l-0.905,6.989
			c-0.403,3.107-0.604,5.437-0.604,6.989c0,3.536,0.45,8.021,1.358,13.457c0.302,1.813,0.454,3.54,0.454,5.178
			c0,3.364-1.552,5.046-4.658,5.046c-2.934,0-4.399-1.811-4.399-5.436c0-0.859,0.062-2.155,0.192-3.882
			c0.131-1.727,0.193-3.019,0.193-3.882c0-2.673-0.732-4.399-2.201-5.179c-0.946-0.603-2.934-0.903-5.954-0.903h-4.008
			c-3.022,0-4.874,0.341-5.565,1.025c-0.691,0.687-1.035,2.57-1.035,5.648v15.28c0,4.021,0.451,6.74,1.358,8.154
			c0.908,1.41,2.608,2.115,5.112,2.115c0.602,0,1.554,0,2.848,0c1.29,0,2.242,0,2.845,0c3.97,0,5.954,1.468,5.954,4.399
			c0,1.209-0.451,2.244-1.359,3.107c-0.904,0.858-2.005,1.292-3.299,1.292c-1.379,0-3.411-0.217-6.084-0.646
			c-3.797-0.603-8.111-0.906-12.94-0.906c-3.106,0-6.429,0.261-9.965,0.778l-4.402,0.646c-0.255,0-0.561,0.044-0.901,0.129
			c-0.351,0-0.605,0-0.781,0c-3.797,0-5.689-1.553-5.689-4.656c0-2.762,1.335-4.143,4.008-4.143c0.348,0,1.465,0.087,3.364,0.257
			c0.952,0.261,1.856,0.39,2.72,0.39c2.332,0,3.946-0.714,4.854-2.135c0.905-1.425,1.4-3.948,1.486-7.572V349.25z"/>
		<path d="M1106.504,349.25v-10.871v-20.577c0-6.382-2.186-9.579-6.547-9.579c-1.113,0-1.971,0.122-2.569,0.365
			c-1.368,0.363-2.479,0.543-3.337,0.543c-1.115,0-2.057-0.418-2.828-1.267c-0.771-0.841-1.153-1.884-1.153-3.13
			c0-3.106,1.81-4.663,5.435-4.663c0.43,0,1.077,0.047,1.94,0.132l8.933,0.903c3.363,0.346,7.117,0.518,11.255,0.518
			c2.243,0,7.072-0.128,14.495-0.386l14.883-0.518c1.984-0.088,4.314-0.217,6.986-0.389c1.211-0.174,2.504-0.261,3.884-0.261
			c4.571,0,6.862,2.03,6.862,6.084c0,1.55-0.221,3.927-0.647,7.118c-0.433,3.19-0.646,5.608-0.646,7.246
			c0,1.381,0.083,3.107,0.255,5.179c0.176,2.067,0.262,3.966,0.262,5.692c0,3.541-1.553,5.306-4.661,5.306
			c-3.188,0-4.788-2.019-4.788-6.055c0-1.201,0.065-3.045,0.195-5.538c0.128-2.491,0.193-4.335,0.193-5.539
			c0-4.551-1.293-7.426-3.881-8.63c-2.59-1.201-8.715-1.804-18.377-1.804c-8.197,0-12.857,0.734-13.979,2.2
			c-0.863,1.124-1.294,5.09-1.294,11.906v9.577c0,2.417,0.323,3.904,0.97,4.464c0.646,0.561,2.438,0.841,5.373,0.841h4.269
			c5.606,0,8.413-2.067,8.413-6.211c0-0.947-0.109-2.244-0.323-3.882c-0.216-1.639-0.323-2.891-0.323-3.754
			c0-3.279,1.555-4.917,4.658-4.917c2.934,0,4.398,1.898,4.398,5.692c0,0.518-0.098,1.554-0.299,3.106l-0.905,6.989
			c-0.403,3.107-0.604,5.437-0.604,6.989c0,3.536,0.45,8.021,1.357,13.457c0.301,1.813,0.451,3.54,0.451,5.178
			c0,3.364-1.549,5.046-4.657,5.046c-2.935,0-4.399-1.811-4.399-5.436c0-0.859,0.062-2.155,0.195-3.882
			c0.128-1.727,0.19-3.019,0.19-3.882c0-2.673-0.729-4.399-2.198-5.179c-0.949-0.603-2.934-0.903-5.954-0.903h-4.011
			c-3.023,0-4.874,0.341-5.562,1.025c-0.691,0.687-1.038,2.57-1.038,5.648v15.28c0,4.021,0.454,6.74,1.358,8.154
			c0.908,1.41,2.607,2.115,5.115,2.115c0.602,0,1.551,0,2.844,0c1.294,0,2.246,0,2.849,0c3.97,0,5.95,1.468,5.95,4.399
			c0,1.209-0.45,2.244-1.357,3.107c-0.902,0.858-2.006,1.292-3.297,1.292c-1.383,0-3.411-0.217-6.087-0.646
			c-3.798-0.603-8.108-0.906-12.938-0.906c-3.106,0-6.432,0.261-9.968,0.778l-4.399,0.646c-0.259,0-0.562,0.044-0.905,0.129
			c-0.347,0-0.605,0-0.777,0c-3.797,0-5.692-1.553-5.692-4.656c0-2.762,1.338-4.143,4.011-4.143c0.344,0,1.465,0.087,3.364,0.257
			c0.952,0.261,1.854,0.39,2.718,0.39c2.331,0,3.947-0.714,4.855-2.135c0.902-1.425,1.397-3.948,1.486-7.572V349.25z"/>
		<path d="M1186.867,317.802c0-6.382-2.199-9.579-6.598-9.579c-1.211,0-2.115,0.09-2.719,0.262c-1.382,0.258-2.545,0.39-3.494,0.39
			c-1.124,0-2.07-0.412-2.845-1.23c-0.78-0.819-1.166-1.832-1.166-3.041c0-3.019,1.896-4.531,5.692-4.531
			c0.52,0,1.122,0.047,1.812,0.132l6.859,0.903c2.59,0.346,5.263,0.518,8.025,0.518c2.672,0,5.604-0.212,8.799-0.646l5.826-0.775
			c0.686-0.085,1.29-0.132,1.81-0.132c3.794,0,5.692,1.513,5.692,4.531c0,1.209-0.385,2.222-1.166,3.041
			c-0.773,0.818-1.723,1.23-2.845,1.23c-0.863,0-2.026-0.132-3.491-0.39c-0.608-0.172-1.514-0.262-2.718-0.262
			c-4.405,0-6.604,3.197-6.604,9.579v51.894c0,6.471,2.198,9.707,6.604,9.707c0.686,0,1.593-0.085,2.718-0.258
			c1.637-0.26,2.801-0.389,3.491-0.389c2.673,0,4.011,1.381,4.011,4.143c0,3.104-1.898,4.656-5.692,4.656c-0.173,0-0.478,0-0.908,0
			c-0.344-0.085-0.646-0.129-0.901-0.129l-6.734-1.035c-2.242-0.345-4.616-0.519-7.117-0.519c-3.625,0-6.858,0.217-9.707,0.647
			l-5.951,0.906c-0.174,0-0.475,0.044-0.904,0.129c-0.434,0-0.777,0-1.035,0c-3.715,0-5.565-1.553-5.565-4.656
			c0-2.762,1.335-4.143,4.011-4.143c0.43,0,1.596,0.087,3.494,0.257c0.95,0.261,1.855,0.39,2.719,0.39
			c4.398,0,6.598-3.236,6.598-9.707V317.802z"/>
		<path d="M1260.759,297.742c9.579,0,17.388,3.67,23.425,11v-1.458c0-0.44,0-0.926,0-1.458c-0.172-0.529-0.258-0.838-0.258-0.926
			c-0.173-1.943-0.262-2.828-0.262-2.652c0-3.004,1.341-4.506,4.02-4.506c2.842,0,4.266,1.811,4.266,5.435
			c0,0.691-0.086,2.762-0.261,6.215c-0.517,4.312-0.774,7.291-0.774,8.929c0,2.328,0.148,4.703,0.442,7.116l0.593,4.917v1.294
			c0,3.886-1.551,5.825-4.66,5.825c-3.363,0-5.004-1.837-4.916-5.517v-4.624c0.172-6.158-1.765-11.164-5.809-15.014
			c-4.043-3.852-9.338-5.777-15.874-5.777c-8.521,0-15.192,3.281-20.01,9.836c-4.817,6.559-7.227,15.619-7.227,27.177
			c0,11.822,2.479,21.029,7.44,27.633c4.963,6.599,11.885,9.897,20.771,9.897c4.83,0,9.168-1.164,13.006-3.493
			c3.836-2.328,6.535-5.392,8.09-9.188c1.035-2.501,1.555-5.865,1.555-10.096c0-3.966,1.638-5.954,4.916-5.954
			c3.536,0,5.305,1.988,5.305,5.954c0,9.232-3.192,16.784-9.576,22.648c-6.385,5.868-14.623,8.799-24.719,8.799
			c-11.646,0-20.943-4.094-27.886-12.292c-6.948-8.196-10.419-19.107-10.419-32.743c0-14.06,3.557-25.408,10.674-34.035
			C1239.731,302.057,1249.115,297.742,1260.759,297.742z"/>
		<path d="M1318.865,317.802c0-6.382-2.197-9.579-6.598-9.579c-1.213,0-2.115,0.09-2.717,0.262c-1.386,0.258-2.551,0.39-3.498,0.39
			c-1.121,0-2.07-0.412-2.845-1.23c-0.78-0.819-1.166-1.832-1.166-3.041c0-3.019,1.804-4.531,5.417-4.531
			c0.086,0,0.732,0.047,1.932,0.132c12.898,0.863,18.915,1.293,18.058,1.293h1.29l31.082-0.907c0.602,0,2.836-0.13,6.704-0.386
			c1.38-0.085,2.622-0.132,3.741-0.132c4.473,0,6.704,1.985,6.704,5.952c0,0.694-0.122,2.894-0.368,6.601
			c-0.187,2.765-0.278,5.306-0.278,7.639c0,3.019,0.074,5.131,0.216,6.339c0.289,2.505,0.431,4.359,0.431,5.563
			c0,3.279-1.53,4.917-4.589,4.917c-3.068,0-4.596-2.284-4.596-6.855v-6.731c0-7.247-1.514-11.518-4.533-12.812
			c-2.242-0.946-8.019-1.424-17.34-1.424c-6.126,0-9.751,0.132-10.873,0.389c-3.707,0.951-5.562,3.541-5.562,7.764v5.825
			c0,0.691,0,1.642,0,2.847c0,1.208,0,2.07,0,2.588v1.682c0,3.453,0.763,5.437,2.299,5.954c0.593,0.173,1.614,0.257,3.062,0.257
			h5.233c5.36,0,8.04-1.851,8.04-5.563c0-1.036-0.107-2.372-0.324-4.011c-0.217-1.638-0.323-3.106-0.323-4.399
			c0-3.452,1.534-5.179,4.595-5.179c3.064,0,4.596,1.858,4.596,5.568c0,0.689-0.279,3.364-0.836,8.021
			c-0.479,3.971-0.719,7.462-0.719,10.485c0,1.727,0.172,4.785,0.52,9.185c0.083,0.694,0.3,2.199,0.646,4.533
			c0.258,1.898,0.389,3.407,0.389,4.528c0,3.105-1.555,4.66-4.657,4.66c-3.022,0-4.533-1.815-4.533-5.437
			c0-0.95,0.106-2.331,0.323-4.143c0.217-1.81,0.324-3.19,0.324-4.143c0-3.705-2.457-5.564-7.375-5.564h-5.824
			c-2.501,0-4.031,0.434-4.596,1.297c-0.561,0.863-0.839,2.718-0.839,5.563v8.025c0,1.381,0.044,3.231,0.128,5.563
			c0.088,2.847,0.133,4.745,0.133,5.693c0.083,3.451,0.774,5.611,2.068,6.472c0.949,0.604,3.188,0.906,6.73,0.906h17.598
			c5.092,0,8.583-0.757,10.481-2.267c1.899-1.509,2.851-4.333,2.851-8.476c0-1.294-0.064-3.213-0.195-5.759
			c-0.127-2.545-0.193-4.466-0.193-5.758c0-3.884,1.531-5.825,4.596-5.825c3.234,0,4.851,1.986,4.851,5.953
			c0,1.554-0.062,3.926-0.196,7.118c-0.127,3.195-0.189,5.563-0.189,7.117c0,1.211,0.062,3,0.189,5.372
			c0.134,2.373,0.196,4.161,0.196,5.369c0,4.055-1.985,6.082-5.954,6.082c-0.946,0-2.457-0.085-4.527-0.257
			c-1.035-0.089-2.934-0.132-5.692-0.132c0.603,0-2.765-0.085-10.096-0.258c-7.337-0.173-13.679-0.257-19.024-0.257
			c-8.107,0-16.047,0.257-23.813,0.774c-0.344,0-0.735,0.044-1.163,0.129c-0.433,0-0.691,0-0.777,0
			c-3.621,0-5.435-1.553-5.435-4.656c0-2.762,1.338-4.143,4.011-4.143c0.431,0,1.6,0.087,3.498,0.257
			c0.946,0.261,1.852,0.39,2.717,0.39c4.4,0,6.598-3.236,6.598-9.707V317.802z"/>
		<path d="M1423.693,352.353c0-3.019,1.721-4.528,5.174-4.528h20.188c3.453,0,5.18,1.47,5.18,4.401c0,3.105-1.727,4.66-5.18,4.66
			h-20.188C1425.414,356.886,1423.693,355.376,1423.693,352.353z"/>
	</g>
</g>
<g>
	<path d="M338.546,20.913l0.01,0.038l-3.441-1.356c-0.103-0.041-21.457-7.148-32.996-7.148c-14.704,0-24.645,6.311-29.545,18.757
		c-7.175,16.95,3.226,63.419,13.282,108.358c12.146,54.268,23.617,105.525,10.946,122.818
		c-10.706,14.028-39.219,15.539-50.984,15.539h-0.001c-1.654,0-2.748-0.033-3.092-0.045c-0.351,0.013-1.438,0.045-3.091,0.045
		c-11.612,0-39.53-1.48-50.52-14.971c-7.277-2.314-13.877-5.819-17.919-11.115c-12.7-17.331-1.229-68.589,10.917-122.857
		c10.057-44.938,20.457-91.408,13.306-108.299c-1.489-3.783-3.313-7.023-5.44-9.76c-5.544-7.13-13.224-10.731-22.974-10.76
		c-4.023-0.012-8.577,1.025-11.353,1.779c-1.555,0.422-2.558,0.756-2.58,0.766C64.051,32.958,0,117.248,0,216.501
		c0,124.684,101.077,225.761,225.761,225.761c124.686,0,225.762-101.077,225.762-225.761
		C451.522,132.902,406.074,59.934,338.546,20.913z"/>
	<path d="M242.62,272.873l0.103-0.004l0.105,0.004c0.044,0.002,1.14,0.045,2.988,0.045c8.598,0.001,37.396-0.976,46.981-13.532
		c11.3-15.422-0.984-70.308-11.821-118.732c-10.7-47.812-20.808-92.973-13.031-111.341c5.623-14.285,17.448-21.867,34.173-21.867
		c3.379,0,8.415,0.832,13.503,1.911c-1.845-0.802-3.698-1.588-5.568-2.34l0.003,0.12l-3.441-1.355
		c-0.103-0.042-10.439-3.921-21.979-3.921c-14.704,0-24.645,6.311-29.545,18.758c-7.175,16.95,3.226,63.419,13.282,108.357
		c12.146,54.268,23.617,105.526,10.946,122.818c-10.706,14.028-39.219,15.539-50.984,15.539h-0.001
		c-1.654,0-2.748-0.033-3.092-0.045c-0.351,0.012-1.438,0.045-3.091,0.045c-5.068,0-13.247-0.283-21.768-1.721
		c12.537,6.675,32.365,7.307,39.25,7.307C241.48,272.918,242.573,272.875,242.62,272.873z"/>
	<path fill="#FFFFFF" d="M302.118,7.446c-16.725,0-28.55,7.582-34.173,21.867c-7.776,18.368,2.331,63.529,13.031,111.341
		c10.837,48.424,23.121,103.31,11.821,118.732c-9.585,12.557-38.384,13.533-46.981,13.532c-1.849,0-2.944-0.043-2.988-0.045
		l-0.105-0.004l-0.103,0.004c-0.047,0.002-1.14,0.045-2.986,0.045c-6.885,0-26.713-0.632-39.25-7.307
		c-3.771-0.637-7.605-1.499-11.27-2.664c10.989,13.491,38.907,14.971,50.52,14.971c1.652,0,2.74-0.032,3.091-0.045
		c0.344,0.012,1.438,0.045,3.092,0.045h0.001c11.766,0,40.278-1.511,50.984-15.539c12.671-17.292,1.199-68.55-10.946-122.818
		c-10.057-44.939-20.457-91.408-13.282-108.358c4.9-12.446,14.841-18.757,29.545-18.757c11.539,0,32.894,7.107,32.996,7.148
		l3.441,1.356l-0.01-0.038c-7.388-4.268-15.039-8.13-22.925-11.556C310.533,8.278,305.497,7.446,302.118,7.446z"/>
	<path d="M167.004,0.156c9.75,0.028,17.43,3.63,22.974,10.76c10.188,4.96,19.824,12.476,22.923,20.346
		c7.151,16.892-3.249,63.36-13.306,108.299c-12.146,54.268-23.617,105.525-10.917,122.857c0.139,0.181,0.292,0.351,0.437,0.528
		c3.664,1.165,7.499,2.027,11.27,2.664c-3.121-1.662-5.798-3.692-7.702-6.187c-11.329-15.461,0.955-70.347,11.792-118.771
		c10.7-47.812,20.808-92.973,13.056-111.282C209.84,9.842,179.881,0,169.051,0c-5.695,0-10.499,1.078-13.399,1.935v0
		C158.427,1.182,162.98,0.145,167.004,0.156z"/>
</g>
</svg>
