<?xml version="1.0" encoding="utf-8"?>
<!-- Generator: Adobe Illustrator 16.0.0, SVG Export Plug-In . SVG Version: 6.00 Build 0)  -->
<!DOCTYPE svg PUBLIC "-//W3C//DTD SVG 1.1//EN" "http://www.w3.org/Graphics/SVG/1.1/DTD/svg11.dtd">
<svg version="1.1" id="Layer_1" xmlns="http://www.w3.org/2000/svg" xmlns:xlink="http://www.w3.org/1999/xlink" x="0px" y="0px"
	 width="1296.248px" height="442.262px" viewBox="0 0 1296.248 442.262" enable-background="new 0 0 1296.248 442.262"
	 xml:space="preserve">
<g>
	<g>
		<path d="M488.594,137.251c1.678,7.111,3.795,12.683,6.349,16.707c2.562,4.03,7.775,10.5,15.641,19.408
			c7.874,8.825,12.813,15.122,14.816,18.892c1.959,3.769,2.931,11.781,2.931,24.03c0,5.572-0.512,9.77-1.535,12.596
			c-1.031,2.829-2.598,4.242-4.704,4.242c-2.104,0-3.569-1.113-4.397-3.34c-0.824-2.229-1.24-7.238-1.24-15.04V189.43h-29.402
			v13.625c0,15.593,0.929,27.63,2.779,36.114c1.855,8.479,5.779,15.465,11.769,20.947c5.991,5.483,13.221,8.226,21.696,8.226
			c7.719,0,14.488-2.38,20.307-7.133c5.811-4.757,9.734-10.645,11.769-17.672c2.028-7.023,3.04-17.949,3.04-32.774
			c0-20.389-1.83-35.17-5.485-44.337c-3.66-9.168-12.536-20.902-26.629-35.196c-2.06-2.08-3.698-4.004-5.081-5.83h-34.477
			C487.16,129.815,487.775,133.778,488.594,137.251z"/>
		<path d="M606.288,189.686h-10.9c0.654-14.646,2.073-36.091,4.249-64.285h-27.725l-10.758,138.57h32.729l1.907-37.4h11.321
			l1.704,37.4h32.348L629.109,125.4h-26.528C603.816,150.11,605.053,171.562,606.288,189.686z"/>
		<path d="M601.462,102.294c0.269,5.695,0.53,11.183,0.794,16.578h26.29l-5.485-62.974h-45.759l-4.883,62.974h27.725
			C600.561,113.562,600.994,108.054,601.462,102.294z"/>
		<path d="M687.301,133.719c-0.855,2.612-2.833,3.917-5.945,3.917c-0.747,0-1.804,0.044-3.153,0.128V125.4h-31.661v138.57h36.619
			c12.737,0,21.158-1.243,25.266-3.727c4.115-2.486,7.111-7.117,8.993-13.891c1.876-6.772,2.817-17.188,2.817-31.248v-19.289
			c0-13.542-1.309-23.596-3.911-30.156c-2.605-6.56-7.571-11.251-14.886-14.083c6.565-2.565,10.962-6.247,13.195-11.042
			c1.53-3.293,2.523-8.368,3.001-15.135h-29.343C688.081,129.531,687.75,132.33,687.301,133.719z M688.575,208.965
			c0,8.397-0.615,13.667-1.835,15.808c-1.23,2.144-4.079,3.341-8.538,3.599v-58.218c4.71,0.255,7.62,1.328,8.722,3.212
			c1.101,1.884,1.651,7.282,1.651,16.191V208.965z"/>
		<path d="M678.202,91.497c3.257,0.089,5.451,0.474,6.578,1.158c1.127,0.685,2.042,2.337,2.745,4.947
			c0.703,2.614,1.05,7.178,1.05,13.689c0,2.788-0.026,5.29-0.065,7.581h29.429c0.025-1.22,0.044-2.46,0.044-3.766
			c0-17.981-1.582-31.018-4.743-39.109c-3.153-8.09-7.302-13.463-12.44-16.119s-12.697-3.98-22.674-3.98h-31.584v62.974h31.661
			V91.497z"/>
		<path d="M770.73,135.259c-1.427,1.67-3.924,2.506-7.483,2.506V125.4h-31.658v138.57h31.658v-93.816
			c4.358,0,7.054,1.328,8.083,3.984c1.031,2.655,1.543,9.55,1.543,20.689v69.143h29.402v-54.877c0-16.793-0.264-27.052-0.789-30.779
			c-0.524-3.725-1.868-7.818-4.024-12.275c-2.158-4.454-6.368-8.009-12.634-10.666c6.919-1.114,11.559-4.455,13.914-10.025
			c1.677-3.952,2.739-10.64,3.226-19.948h-29.242C772.451,130.728,771.785,134.023,770.73,135.259z"/>
		<path d="M763.247,91.497c3.663,0,6.178,1.03,7.558,3.084c1.378,2.058,2.068,6.388,2.068,12.983v11.308h29.338
			c0.043-1.968,0.064-4.012,0.064-6.169c0-17.734-1.665-30.648-4.999-38.75c-3.335-8.093-7.648-13.127-12.935-15.098
			c-5.294-1.972-15.405-2.958-30.34-2.958h-22.413v62.974h31.658V91.497z"/>
		<path d="M852.479,189.686h-10.897c0.651-14.646,2.073-36.091,4.25-64.285h-27.725l-10.759,138.57h32.729l1.907-37.4h11.321
			l1.701,37.4h32.352L875.301,125.4h-26.525C850.011,150.11,851.244,171.562,852.479,189.686z"/>
		<path d="M847.654,102.294c0.269,5.695,0.532,11.183,0.793,16.578h26.293l-5.485-62.974h-45.759l-4.883,62.974h27.723
			C846.752,113.562,847.188,108.054,847.654,102.294z"/>
		<polygon points="1017.562,55.898 976.374,55.898 971.665,118.872 1017.562,118.872 		"/>
		<path d="M964.605,100.134c-1.287-16.982-2.541-31.728-3.758-44.236h-40.965v62.974h46.314L964.605,100.134z"/>
		<polygon points="969.104,153.06 966.756,125.4 919.883,125.4 919.883,263.971 947.557,263.971 947.595,126.712 959.209,263.971 
			978.838,263.971 989.712,125.4 971.171,125.4 		"/>
		<polygon points="989.89,263.971 1017.562,263.971 1017.562,125.4 989.859,125.4 		"/>
		<path d="M1072.007,125.685c0,7.712-0.563,12.787-1.69,15.232c-1.127,2.437-3.148,3.66-6.054,3.66
			c-0.654,0-1.427-0.041-2.329-0.128V125.4h-31.661v138.57h31.661v-83.794h8.499c6.917,0,12.518-1.626,16.806-4.884
			c4.286-3.254,7.23-7.922,8.83-14.008c1.607-6.081,2.406-15.763,2.406-29.045V125.4h-26.468V125.685z"/>
		<path d="M1061.934,91.497c4.107,0,6.816,1.073,8.121,3.212c1.306,2.145,1.952,6.771,1.952,13.882v10.281h26.468v-4.754
			c0-13.021-0.408-22.64-1.235-28.854c-0.83-6.211-2.404-11.5-4.74-15.872c-2.329-4.367-5.811-7.711-10.45-10.025
			c-4.641-2.313-11.272-3.469-19.893-3.469h-31.884v62.974h31.661V91.497z"/>
		<path d="M1148.261,204.981c0,12.252-0.303,20.009-0.902,23.264c-0.603,3.253-1.985,4.882-4.136,4.882
			c-2.106,0-3.448-1.413-4.024-4.242c-0.576-2.826-0.866-10.281-0.866-22.361V125.4h-31.581c-0.046,5.078-0.077,10.611-0.077,16.735
			v35.6c0,21.423,0.3,36.415,0.902,44.984c0.602,8.568,2.483,16.492,5.637,23.773c3.164,7.285,7.336,12.746,12.526,16.385
			c5.19,3.645,11.04,5.465,17.554,5.465c6.873,0,12.89-1.929,18.047-5.785c5.167-3.855,9.269-9.383,12.301-16.578
			c3.027-7.195,4.834-15.142,5.415-23.839c0.576-8.694,0.863-23.497,0.863-44.404v-35.6c0-6.124-0.025-11.661-0.077-16.735h-31.581
			V204.981z"/>
		<path d="M1138.332,109.362c0-10.707,0.438-17.159,1.321-19.34c0.876-2.189,2.135-3.28,3.794-3.28c1.952,0,3.244,1.351,3.872,4.05
			c0.626,2.694,0.941,8.891,0.941,18.57v9.51h31.498c-0.147-9.42-0.391-16.704-0.742-21.721c-0.602-8.566-2.483-16.488-5.645-23.774
			c-3.153-7.28-7.328-12.742-12.519-16.387c-5.19-3.642-11.039-5.463-17.561-5.463c-6.865,0-12.883,1.929-18.048,5.787
			c-5.156,3.855-9.261,9.381-12.293,16.577c-3.034,7.198-4.839,15.146-5.415,23.844c-0.326,5.002-0.563,12.096-0.703,21.138h31.498
			V109.362z"/>
		<path d="M1259.174,55.898h-29.081c-3.02,23.75-5.395,44.719-7.142,62.974h25.273L1259.174,55.898z"/>
		<path d="M1213.589,55.898h-29.087l10.559,62.974h24.928C1218.715,103.644,1216.585,82.679,1213.589,55.898z"/>
		<path d="M1221.276,137.893c-0.143-3.386-0.398-7.562-0.771-12.492h-24.349l10.603,63.258v75.312h29.33v-75.312l11.003-63.258
			h-24.741C1221.961,129.71,1221.589,133.914,1221.276,137.893z"/>
		<rect x="1264.59" y="55.898" width="31.658" height="62.974"/>
		<rect x="1264.59" y="125.4" width="31.658" height="138.57"/>
		<polygon points="989.712,125.4 989.859,125.4 989.859,123.5 		"/>
		<path d="M526.643,118.872h29.136v-8.223c0-16.538-0.94-28.256-2.814-35.154c-1.882-6.893-5.716-12.615-11.508-17.155
			c-5.79-4.542-12.8-6.813-21.017-6.813c-7.52,0-13.938,2.081-19.25,6.234c-5.318,4.16-9.165,9.92-11.546,17.285
			c-2.38,7.369-3.569,19.024-3.569,34.96c0,3.125,0.088,6.053,0.223,8.866h31.063c-0.036-0.115,0.026-0.247-0.013-0.361
			c-1.099-3.517-1.649-8.746-1.649-15.692c0-5.401,0.491-9.427,1.471-12.089c0.972-2.656,2.415-3.987,4.319-3.987
			c1.755,0,3.009,0.989,3.764,2.957c0.75,1.971,1.127,6.552,1.127,13.752v15.42l0,0"/>
	</g>
	<g>
		<path d="M488.677,358.147c0-2.63,1.502-3.946,4.511-3.946h17.59c3.006,0,4.51,1.281,4.51,3.835c0,2.706-1.504,4.061-4.51,4.061
			h-17.59C490.179,362.097,488.677,360.781,488.677,358.147z"/>
		<path d="M573.924,371.732c0,4.412,0.449,7.025,1.352,7.849c0.678,0.675,1.559,1.083,2.652,1.235
			c1.086,0.149,3.551,0.223,7.385,0.223h9.923c5.185,0,8.641-0.685,10.37-2.057c1.732-1.373,2.596-4.135,2.596-8.285
			c0-1.113-0.039-2.408-0.111-3.894c-0.155-2.894-0.228-4.634-0.228-5.229c0-3.26,1.315-4.893,3.946-4.893
			c3.156,0,4.738,1.508,4.738,4.512c0,0.903-0.044,1.617-0.116,2.142l-0.788,5.753c-0.225,1.654-0.339,3.383-0.339,5.188
			c0,1.054,0.093,2.61,0.282,4.678c0.186,2.066,0.281,3.629,0.281,4.68c0,3.381-1.915,5.073-5.751,5.073
			c-0.75,0-2.479-0.13-5.186-0.393c-1.804-0.132-4.585-0.263-8.347-0.397h-8.454h-18.04c-1.804,0-4.812,0.154-9.021,0.451
			c-0.604,0-1.636,0.059-3.102,0.17c-1.468,0.111-2.613,0.169-3.44,0.169c-3.156,0-4.735-1.353-4.735-4.06
			c0-2.404,1.166-3.607,3.495-3.607c0.602,0,1.504,0.113,2.706,0.336c1.202,0.229,2.104,0.34,2.709,0.34
			c3.833,0,5.748-2.819,5.748-8.457v-45.215c0-5.561-1.915-8.346-5.748-8.346c-1.058,0-1.843,0.078-2.368,0.227
			c-1.207,0.226-2.221,0.34-3.047,0.34c-0.975,0-1.805-0.359-2.479-1.072c-0.68-0.713-1.016-1.596-1.016-2.648
			c0-2.63,1.615-3.948,4.849-3.948c0.45,0,1.014,0.04,1.693,0.114l5.974,0.676c3.309,0.378,5.751,0.562,7.331,0.562
			c1.951,0,4.357-0.185,7.216-0.562l5.188-0.676c0.6-0.074,1.085-0.114,1.465-0.114c3.381,0,5.074,1.318,5.074,3.948
			c0,1.053-0.339,1.936-1.019,2.648c-0.675,0.713-1.504,1.072-2.479,1.072c-0.753,0-1.769-0.114-3.042-0.34
			c-0.53-0.148-1.318-0.227-2.371-0.227c-3.833,0-5.748,2.768-5.748,8.301V371.732z"/>
		<path d="M681.263,375.514l-4.056-11.049c-0.452-1.203-0.923-1.955-1.411-2.257c-0.491-0.3-1.486-0.451-2.985-0.451h-20.074
			c-1.504,0-2.538,0.267-3.102,0.791s-1.295,1.954-2.197,4.284l-3.27,8.682c-0.303,0.829-0.452,1.619-0.452,2.367
			c0,2.406,1.466,3.609,4.396,3.609c0.753,0,1.825-0.074,3.216-0.227c1.391-0.15,2.422-0.225,3.102-0.225
			c3.081,0,4.624,1.316,4.624,3.945c0,2.48-1.692,3.722-5.076,3.722c-0.6,0-1.43-0.076-2.479-0.226l-5.637-0.702
			c-1.058-0.135-2.784-0.197-5.188-0.197c-2.635,0-4.475,0.06-5.526,0.185l-4.735,0.566c-2.107,0.249-3.65,0.374-4.625,0.374
			c-2.931,0-4.396-1.241-4.396-3.722c0-2.629,1.427-3.945,4.283-3.945c0.603,0,1.055,0.15,1.354,0.451h1.466
			c2.029,0,3.572-0.789,4.624-2.373c0.452-0.605,1.199-2.379,2.257-5.318l20.971-56.903c1.201-3.169,3.569-4.753,7.105-4.753
			c3.455,0,5.748,1.581,6.875,4.736l20.185,55.928c1.277,3.536,2.442,5.865,3.495,6.992c1.052,1.13,2.557,1.691,4.513,1.691
			c0.6,0,1.05-0.051,1.353-0.15l3.155-0.301c2.856,0,4.286,1.239,4.286,3.719c0,2.634-1.43,3.948-4.286,3.948
			c-0.827,0-1.918-0.083-3.27-0.25c-4.738-0.585-8.269-0.875-10.598-0.875c-2.781,0-7.294,0.3-13.534,0.899
			c-1.576,0.149-2.781,0.226-3.605,0.226c-3.009,0-4.514-1.275-4.514-3.834c0-2.552,1.654-3.833,4.966-3.833
			c0.675,0,1.67,0.074,2.988,0.225c1.311,0.152,2.311,0.227,2.985,0.227c2.481,0,3.722-1.014,3.722-3.046
			C682.167,378.147,681.865,377.168,681.263,375.514z M673.146,352.513l-10.148-31.122l-10.373,31.122
			c-0.152,0.451-0.225,0.714-0.225,0.786c0,0.68,0.563,1.016,1.69,1.016h17.929c0.902,0,1.354-0.298,1.354-0.9
			C673.374,353.264,673.296,352.964,673.146,352.513z"/>
		<path d="M722.082,330.411l9.243,47.696l11.616-58.635c0.977-5.109,3.494-7.666,7.555-7.666c4.286,0,6.84,2.256,7.667,6.765
			l11.277,60.324l9.584-46.792c0.675-3.308,1.014-5.826,1.014-7.555c0-3.082-1.577-4.625-4.735-4.625
			c-0.68,0-1.654,0.078-2.932,0.226c-1.279,0.152-2.256,0.226-2.931,0.226c-3.236,0-4.852-1.313-4.852-3.947
			c0-2.555,1.582-3.833,4.735-3.833c1.204,0,2.442,0.075,3.722,0.228c6.162,0.752,10.224,1.125,12.18,1.125
			c1.499,0,3.737-0.224,6.708-0.675c2.967-0.45,5.205-0.678,6.71-0.678c2.778,0,4.172,1.356,4.172,4.066
			c0,2.476-1.354,3.714-4.061,3.714c-0.452,0-1.127-0.092-2.029-0.279c-0.902-0.191-1.577-0.282-2.029-0.282
			c-1.579,0-2.727,0.601-3.44,1.802c-0.716,1.201-1.561,3.909-2.535,8.121l-12.627,53.783c-0.979,4.135-3.309,6.201-6.992,6.201
			c-3.91,0-6.355-2.553-7.333-7.666l-11.386-59.65l-12.516,61.229c-0.83,4.061-2.97,6.088-6.429,6.088
			c-3.533,0-5.79-2.066-6.765-6.201l-13.417-56.152c-0.681-2.857-1.522-4.793-2.538-5.807c-1.014-1.014-2.613-1.523-4.793-1.523
			h-0.788l-2.481,0.338c-2.406,0-3.608-1.258-3.608-3.775c0-2.668,1.315-4.005,3.947-4.005c1.052,0,2.257,0.114,3.608,0.338
			c4.058,0.679,8.008,1.015,11.841,1.015c1.804,0,5.935-0.373,12.401-1.125c1.127-0.152,2.219-0.228,3.271-0.228
			c2.703,0,4.058,1.241,4.058,3.72c0,2.708-1.654,4.061-4.96,4.061c-0.677,0-1.711-0.073-3.1-0.226
			c-1.393-0.147-2.427-0.226-3.102-0.226c-2.634,0-3.949,1.239-3.949,3.723c0,0.902,0.116,1.955,0.341,3.154L722.082,330.411z"/>
		<path d="M867.2,390.734c-10.001,0-17.913-3.604-23.736-10.824c-5.829-7.216-8.739-16.984-8.739-29.314
			c0-12.479,2.932-22.271,8.796-29.375c5.862-7.104,13.942-10.656,24.243-10.656c9.846,0,17.683,3.461,23.509,10.375
			c5.823,6.918,8.739,16.275,8.739,28.076c0,12.78-2.949,22.931-8.851,30.443C885.258,386.979,877.271,390.734,867.2,390.734z
			 M867.425,318.684c-7.217,0-12.82,2.783-16.801,8.346c-3.986,5.562-5.977,13.382-5.977,23.451c0,10.225,1.99,18.138,5.977,23.738
			c3.98,5.598,9.546,8.398,16.687,8.398c6.992,0,12.537-2.912,16.631-8.738c4.098-5.824,6.146-13.738,6.146-23.734
			c0-10.072-1.953-17.832-5.864-23.285C880.315,321.41,874.714,318.684,867.425,318.684z"/>
		<path d="M920.871,355.443v-9.473v-17.928c0-5.561-1.902-8.346-5.705-8.346c-0.969,0-1.714,0.105-2.236,0.318
			c-1.193,0.315-2.163,0.473-2.907,0.473c-0.975,0-1.794-0.365-2.466-1.104c-0.672-0.733-1.003-1.643-1.003-2.728
			c0-2.706,1.577-4.062,4.735-4.062c0.375,0,0.938,0.04,1.688,0.114l7.783,0.787c2.931,0.301,6.201,0.451,9.809,0.451
			c1.955,0,6.162-0.111,12.63-0.336l12.966-0.451c1.731-0.076,3.761-0.189,6.09-0.338c1.052-0.152,2.179-0.228,3.381-0.228
			c3.985,0,5.979,1.769,5.979,5.301c0,1.351-0.189,3.421-0.563,6.202c-0.378,2.78-0.563,4.887-0.563,6.313
			c0,1.203,0.074,2.708,0.225,4.512c0.149,1.802,0.228,3.456,0.228,4.96c0,3.086-1.354,4.623-4.062,4.623
			c-2.781,0-4.174-1.759-4.174-5.275c0-1.047,0.06-2.653,0.171-4.826c0.11-2.17,0.17-3.775,0.17-4.825
			c0-3.965-1.127-6.47-3.383-7.52c-2.257-1.047-7.595-1.571-16.013-1.571c-7.143,0-11.203,0.64-12.178,1.916
			c-0.752,0.98-1.127,4.436-1.127,10.375v8.344c0,2.106,0.282,3.402,0.846,3.89c0.563,0.488,2.125,0.733,4.681,0.733h3.717
			c4.888,0,7.333-1.802,7.333-5.412c0-0.826-0.098-1.955-0.281-3.383c-0.188-1.428-0.281-2.518-0.281-3.271
			c0-2.857,1.352-4.284,4.055-4.284c2.56,0,3.836,1.654,3.836,4.961c0,0.45-0.088,1.352-0.264,2.706l-0.788,6.089
			c-0.352,2.708-0.527,4.736-0.527,6.09c0,3.082,0.393,6.988,1.184,11.725c0.264,1.581,0.396,3.086,0.396,4.513
			c0,2.931-1.352,4.396-4.058,4.396c-2.557,0-3.833-1.578-3.833-4.736c0-0.748,0.054-1.877,0.168-3.382
			c0.113-1.505,0.168-2.63,0.168-3.382c0-2.329-0.639-3.834-1.918-4.512c-0.825-0.525-2.557-0.787-5.188-0.787h-3.491
			c-2.635,0-4.247,0.297-4.85,0.893c-0.603,0.598-0.902,2.24-0.902,4.922v13.314c0,3.504,0.393,5.872,1.184,7.104
			c0.791,1.229,2.272,1.844,4.454,1.844c0.524,0,1.354,0,2.481,0c1.124,0,1.954,0,2.479,0c3.459,0,5.188,1.279,5.188,3.832
			c0,1.055-0.393,1.956-1.184,2.709c-0.788,0.748-1.747,1.125-2.874,1.125c-1.202,0-2.973-0.188-5.302-0.563
			c-3.309-0.524-7.066-0.79-11.274-0.79c-2.706,0-5.602,0.229-8.683,0.68l-3.836,0.562c-0.223,0-0.488,0.039-0.785,0.112
			c-0.306,0-0.527,0-0.68,0c-3.309,0-4.958-1.354-4.958-4.057c0-2.406,1.163-3.609,3.492-3.609c0.302,0,1.276,0.076,2.931,0.223
			c0.83,0.229,1.618,0.34,2.37,0.34c2.032,0,3.438-0.621,4.229-1.859c0.788-1.241,1.22-3.439,1.295-6.598V355.443z"/>
		<path d="M990.668,355.443v-9.473v-17.928c0-5.561-1.905-8.346-5.705-8.346c-0.969,0-1.716,0.105-2.238,0.318
			c-1.191,0.315-2.16,0.473-2.907,0.473c-0.973,0-1.792-0.365-2.464-1.104c-0.672-0.733-1.005-1.643-1.005-2.728
			c0-2.706,1.576-4.062,4.735-4.062c0.374,0,0.938,0.04,1.69,0.114l7.782,0.787c2.932,0.301,6.201,0.451,9.807,0.451
			c1.954,0,6.162-0.111,12.63-0.336l12.968-0.451c1.729-0.076,3.758-0.189,6.087-0.338c1.055-0.152,2.182-0.228,3.384-0.228
			c3.983,0,5.979,1.769,5.979,5.301c0,1.351-0.191,3.421-0.563,6.202c-0.377,2.78-0.563,4.887-0.563,6.313
			c0,1.203,0.072,2.708,0.223,4.512c0.152,1.802,0.228,3.456,0.228,4.96c0,3.086-1.353,4.623-4.062,4.623
			c-2.778,0-4.172-1.759-4.172-5.275c0-1.047,0.058-2.653,0.171-4.826c0.111-2.17,0.168-3.775,0.168-4.825
			c0-3.965-1.127-6.47-3.381-7.52c-2.257-1.047-7.594-1.571-16.013-1.571c-7.142,0-11.202,0.64-12.18,1.916
			c-0.752,0.98-1.127,4.436-1.127,10.375v8.344c0,2.106,0.282,3.402,0.846,3.89c0.563,0.488,2.124,0.733,4.681,0.733h3.72
			c4.885,0,7.33-1.802,7.33-5.412c0-0.826-0.096-1.955-0.281-3.383c-0.189-1.428-0.282-2.518-0.282-3.271
			c0-2.857,1.354-4.284,4.059-4.284c2.556,0,3.833,1.654,3.833,4.961c0,0.45-0.085,1.352-0.261,2.706l-0.789,6.089
			c-0.352,2.708-0.527,4.736-0.527,6.09c0,3.082,0.394,6.988,1.185,11.725c0.261,1.581,0.393,3.086,0.393,4.513
			c0,2.931-1.35,4.396-4.059,4.396c-2.556,0-3.833-1.578-3.833-4.736c0-0.748,0.055-1.877,0.171-3.382
			c0.111-1.505,0.165-2.63,0.165-3.382c0-2.329-0.636-3.834-1.915-4.512c-0.827-0.525-2.557-0.787-5.188-0.787h-3.495
			c-2.634,0-4.246,0.297-4.847,0.893c-0.602,0.598-0.904,2.24-0.904,4.922v13.314c0,3.504,0.396,5.872,1.184,7.104
			c0.791,1.229,2.272,1.844,4.456,1.844c0.525,0,1.353,0,2.479,0s1.956,0,2.481,0c3.458,0,5.185,1.279,5.185,3.832
			c0,1.055-0.393,1.956-1.184,2.709c-0.786,0.748-1.747,1.125-2.872,1.125c-1.204,0-2.972-0.188-5.304-0.563
			c-3.309-0.524-7.064-0.79-11.272-0.79c-2.706,0-5.604,0.229-8.685,0.68l-3.833,0.562c-0.226,0-0.489,0.039-0.789,0.112
			c-0.302,0-0.527,0-0.677,0c-3.309,0-4.96-1.354-4.96-4.057c0-2.406,1.165-3.609,3.494-3.609c0.3,0,1.277,0.076,2.932,0.223
			c0.829,0.229,1.615,0.34,2.367,0.34c2.032,0,3.44-0.621,4.231-1.859c0.786-1.241,1.218-3.439,1.295-6.598V355.443z"/>
		<path d="M1060.688,328.043c0-5.561-1.915-8.346-5.748-8.346c-1.055,0-1.844,0.078-2.368,0.227c-1.204,0.226-2.218,0.34-3.045,0.34
			c-0.979,0-1.804-0.359-2.479-1.072c-0.68-0.713-1.016-1.596-1.016-2.648c0-2.63,1.651-3.948,4.96-3.948
			c0.452,0,0.977,0.04,1.579,0.114l5.977,0.787c2.256,0.301,4.585,0.451,6.991,0.451c2.329,0,4.883-0.185,7.667-0.562l5.076-0.676
			c0.598-0.074,1.124-0.114,1.577-0.114c3.306,0,4.96,1.318,4.96,3.948c0,1.053-0.336,1.936-1.016,2.648
			c-0.675,0.713-1.502,1.072-2.479,1.072c-0.752,0-1.765-0.114-3.042-0.34c-0.529-0.148-1.318-0.227-2.367-0.227
			c-3.839,0-5.754,2.785-5.754,8.346v45.215c0,5.638,1.915,8.457,5.754,8.457c0.597,0,1.388-0.073,2.367-0.225
			c1.427-0.227,2.44-0.338,3.042-0.338c2.329,0,3.495,1.203,3.495,3.609c0,2.703-1.654,4.057-4.96,4.057c-0.15,0-0.416,0-0.791,0
			c-0.3-0.073-0.563-0.112-0.786-0.112l-5.867-0.901c-1.954-0.301-4.022-0.451-6.201-0.451c-3.158,0-5.976,0.188-8.457,0.562
			l-5.186,0.79c-0.152,0-0.413,0.039-0.788,0.112c-0.378,0-0.678,0-0.902,0c-3.236,0-4.849-1.354-4.849-4.057
			c0-2.406,1.163-3.609,3.494-3.609c0.375,0,1.391,0.076,3.045,0.223c0.827,0.229,1.615,0.34,2.368,0.34
			c3.833,0,5.748-2.819,5.748-8.457V328.043z"/>
		<path d="M1125.069,310.564c8.347,0,15.15,3.198,20.41,9.585v-1.271c0-0.384,0-0.807,0-1.271c-0.15-0.461-0.225-0.729-0.225-0.806
			c-0.15-1.693-0.228-2.465-0.228-2.312c0-2.617,1.168-3.927,3.502-3.927c2.477,0,3.717,1.578,3.717,4.736
			c0,0.602-0.075,2.405-0.228,5.414c-0.449,3.758-0.675,6.354-0.675,7.78c0,2.028,0.13,4.097,0.386,6.2l0.517,4.284v1.128
			c0,3.385-1.352,5.074-4.061,5.074c-2.931,0-4.36-1.601-4.283-4.807v-4.027c0.15-5.367-1.538-9.729-5.061-13.082
			c-3.523-3.357-8.137-5.034-13.831-5.034c-7.424,0-13.237,2.858-17.435,8.569c-4.198,5.715-6.297,13.61-6.297,23.68
			c0,10.301,2.161,18.322,6.482,24.076c4.324,5.75,10.354,8.625,18.099,8.625c4.208,0,7.987-1.016,11.332-3.045
			c3.342-2.029,5.694-4.697,7.049-8.006c0.902-2.18,1.354-5.109,1.354-8.796c0-3.456,1.427-5.188,4.283-5.188
			c3.081,0,4.621,1.731,4.621,5.188c0,8.044-2.781,14.624-8.344,19.733c-5.562,5.113-12.74,7.666-21.536,7.666
			c-10.148,0-18.249-3.566-24.297-10.709c-6.054-7.143-9.078-16.648-9.078-28.53c0-12.249,3.1-22.138,9.3-29.653
			C1106.749,314.324,1114.925,310.564,1125.069,310.564z"/>
		<path d="M1175.698,328.043c0-5.561-1.915-8.346-5.749-8.346c-1.057,0-1.843,0.078-2.367,0.227c-1.207,0.226-2.223,0.34-3.048,0.34
			c-0.977,0-1.804-0.359-2.479-1.072c-0.68-0.713-1.016-1.596-1.016-2.648c0-2.63,1.571-3.948,4.72-3.948
			c0.075,0,0.639,0.04,1.683,0.114c11.238,0.753,16.48,1.127,15.733,1.127h1.125l27.08-0.791c0.525,0,2.472-0.112,5.842-0.336
			c1.202-0.074,2.285-0.114,3.26-0.114c3.897,0,5.842,1.729,5.842,5.186c0,0.604-0.106,2.521-0.32,5.751
			c-0.163,2.41-0.243,4.623-0.243,6.656c0,2.63,0.064,4.471,0.188,5.521c0.251,2.184,0.375,3.799,0.375,4.849
			c0,2.857-1.334,4.284-3.999,4.284c-2.673,0-4.004-1.99-4.004-5.973v-5.865c0-6.314-1.318-10.035-3.949-11.162
			c-1.954-0.825-6.987-1.242-15.108-1.242c-5.338,0-8.496,0.115-9.474,0.34c-3.23,0.828-4.846,3.084-4.846,6.764v5.076
			c0,0.602,0,1.43,0,2.479c0,1.054,0,1.805,0,2.255v1.466c0,3.009,0.664,4.737,2.003,5.188c0.517,0.148,1.406,0.223,2.667,0.223
			h4.561c4.67,0,7.004-1.612,7.004-4.848c0-0.902-0.093-2.066-0.281-3.494s-0.282-2.707-0.282-3.834
			c0-3.008,1.337-4.512,4.004-4.512c2.671,0,4.004,1.619,4.004,4.852c0,0.602-0.242,2.932-0.729,6.988
			c-0.416,3.46-0.626,6.503-0.626,9.137c0,1.504,0.15,4.168,0.453,8.002c0.072,0.605,0.261,1.916,0.563,3.949
			c0.225,1.654,0.338,2.969,0.338,3.945c0,2.707-1.354,4.061-4.058,4.061c-2.634,0-3.95-1.581-3.95-4.736
			c0-0.828,0.094-2.031,0.282-3.609c0.188-1.576,0.281-2.779,0.281-3.609c0-3.229-2.14-4.848-6.426-4.848h-5.073
			c-2.18,0-3.513,0.378-4.004,1.13c-0.489,0.751-0.731,2.367-0.731,4.848v6.991c0,1.203,0.038,2.816,0.11,4.848
			c0.078,2.48,0.117,4.135,0.117,4.961c0.072,3.008,0.674,4.889,1.801,5.639c0.827,0.527,2.779,0.789,5.865,0.789h15.333
			c4.436,0,7.478-0.658,9.132-1.975c1.654-1.314,2.484-3.775,2.484-7.384c0-1.128-0.057-2.8-0.171-5.018
			c-0.111-2.218-0.168-3.892-0.168-5.017c0-3.384,1.334-5.076,4.004-5.076c2.817,0,4.227,1.73,4.227,5.187
			c0,1.354-0.055,3.421-0.171,6.202c-0.111,2.783-0.165,4.848-0.165,6.201c0,1.056,0.054,2.614,0.165,4.682
			c0.116,2.066,0.171,3.625,0.171,4.678c0,3.532-1.729,5.299-5.188,5.299c-0.825,0-2.141-0.073-3.945-0.224
			c-0.901-0.077-2.556-0.114-4.96-0.114c0.525,0-2.409-0.074-8.796-0.226c-6.393-0.149-11.918-0.224-16.576-0.224
			c-7.064,0-13.981,0.224-20.748,0.675c-0.3,0-0.642,0.039-1.014,0.112c-0.377,0-0.602,0-0.677,0c-3.156,0-4.735-1.354-4.735-4.057
			c0-2.406,1.165-3.609,3.494-3.609c0.375,0,1.394,0.076,3.048,0.223c0.824,0.229,1.613,0.34,2.367,0.34
			c3.834,0,5.749-2.819,5.749-8.457V328.043z"/>
		<path d="M1267.034,358.147c0-2.63,1.5-3.946,4.509-3.946h17.589c3.009,0,4.514,1.281,4.514,3.835c0,2.706-1.505,4.061-4.514,4.061
			h-17.589C1268.534,362.097,1267.034,360.781,1267.034,358.147z"/>
	</g>
</g>
<g>
	<path d="M338.413,20.912l0.01,0.038l-3.441-1.355c-0.103-0.041-21.457-7.148-32.996-7.148c-14.704,0-24.645,6.311-29.545,18.757
		c-7.175,16.95,3.226,63.419,13.282,108.358c12.146,54.268,23.617,105.525,10.946,122.817
		c-10.706,14.028-39.219,15.539-50.984,15.539h-0.001c-1.654,0-2.748-0.033-3.092-0.046c-0.351,0.014-1.438,0.046-3.091,0.046
		c-11.612,0-39.53-1.48-50.52-14.971c-7.277-2.314-13.877-5.819-17.919-11.115c-12.7-17.331-1.229-68.589,10.917-122.856
		c10.057-44.938,20.457-91.408,13.306-108.3c-1.489-3.783-3.313-7.022-5.44-9.761c-5.544-7.129-13.224-10.73-22.974-10.759
		c-4.023-0.012-8.577,1.024-11.353,1.778c-1.555,0.422-2.558,0.757-2.58,0.766C63.918,32.957-0.133,117.247-0.133,216.501
		c0,124.684,101.077,225.761,225.761,225.761c124.686,0,225.762-101.077,225.762-225.761
		C451.39,132.901,405.941,59.934,338.413,20.912z"/>
	<path d="M242.487,272.873l0.103-0.004l0.105,0.004c0.044,0.002,1.14,0.045,2.988,0.045c8.598,0.001,37.396-0.976,46.981-13.532
		c11.3-15.423-0.984-70.308-11.821-118.732c-10.7-47.812-20.808-92.973-13.031-111.341c5.623-14.284,17.448-21.866,34.173-21.866
		c3.379,0,8.415,0.832,13.503,1.91c-1.845-0.802-3.698-1.588-5.568-2.34l0.003,0.12l-3.441-1.356
		c-0.103-0.041-10.439-3.92-21.979-3.92c-14.704,0-24.645,6.311-29.545,18.758c-7.175,16.949,3.226,63.419,13.282,108.357
		c12.146,54.268,23.617,105.525,10.946,122.817c-10.706,14.028-39.219,15.539-50.984,15.539h-0.001
		c-1.654,0-2.748-0.033-3.092-0.045c-0.351,0.012-1.438,0.045-3.091,0.045c-5.068,0-13.247-0.283-21.768-1.721
		c12.537,6.675,32.365,7.307,39.25,7.307C241.348,272.918,242.44,272.875,242.487,272.873z"/>
	<path fill="#FFFFFF" d="M301.985,7.446c-16.725,0-28.55,7.582-34.173,21.866c-7.776,18.368,2.331,63.529,13.031,111.341
		c10.837,48.425,23.121,103.31,11.821,118.732c-9.585,12.557-38.384,13.533-46.981,13.532c-1.849,0-2.944-0.043-2.988-0.045
		l-0.105-0.004l-0.103,0.004c-0.047,0.002-1.14,0.045-2.986,0.045c-6.885,0-26.713-0.632-39.25-7.307
		c-3.771-0.637-7.605-1.499-11.27-2.664c10.989,13.49,38.907,14.971,50.52,14.971c1.652,0,2.74-0.032,3.091-0.046
		c0.344,0.013,1.438,0.046,3.092,0.046h0.001c11.766,0,40.278-1.511,50.984-15.539c12.671-17.292,1.199-68.55-10.946-122.817
		c-10.057-44.939-20.457-91.408-13.282-108.358c4.9-12.446,14.841-18.757,29.545-18.757c11.539,0,32.894,7.107,32.996,7.148
		l3.441,1.355l-0.01-0.038c-7.388-4.268-15.039-8.13-22.925-11.556C310.4,8.278,305.364,7.446,301.985,7.446z"/>
	<path d="M166.871,0.156c9.75,0.028,17.43,3.63,22.974,10.759c10.188,4.961,19.824,12.477,22.923,20.347
		c7.151,16.892-3.249,63.36-13.306,108.3c-12.146,54.268-23.617,105.525-10.917,122.857c0.139,0.181,0.292,0.351,0.437,0.528
		c3.664,1.165,7.499,2.027,11.27,2.664c-3.121-1.662-5.798-3.692-7.702-6.188c-11.329-15.461,0.955-70.346,11.792-118.771
		c10.7-47.812,20.808-92.973,13.056-111.282C209.707,9.842,179.748,0,168.918,0c-5.695,0-10.499,1.078-13.399,1.935l0,0
		C158.294,1.181,162.848,0.145,166.871,0.156z"/>
</g>
</svg>
